<?xml version="1.0" encoding="UTF-8" standalone="no"?>
<!DOCTYPE svg PUBLIC "-//W3C//DTD SVG 1.1//EN" "http://www.w3.org/Graphics/SVG/1.1/DTD/svg11.dtd">
<svg xmlns="http://www.w3.org/2000/svg" version="1.1" viewBox="0.00 0.00 781.00 405.00">
<g fill="#ffffff">
<path d="
  M 235.77 232.52
  C 232.56 235.89 228.78 236.99 223.88 238.88
  Q 222.15 239.55 220.54 242.74
  A 1.90 1.90 0.0 0 0 220.35 243.69
  C 220.60 247.17 220.52 253.64 220.05 258.40
  C 219.24 266.51 218.73 275.42 217.60 282.89
  Q 216.62 289.36 216.49 294.21
  C 216.37 298.98 215.39 302.83 215.20 307.32
  C 214.95 312.97 213.91 318.00 213.08 324.71
  Q 211.80 335.13 208.11 349.83
  Q 207.37 352.79 205.51 355.08
  A 1.08 1.08 0.0 0 1 203.78 355.01
  C 202.22 352.76 202.21 348.42 202.11 343.94
  C 201.98 338.18 201.93 327.50 202.34 319.03
  Q 202.87 308.36 202.78 304.69
  C 202.58 296.54 204.85 289.54 204.49 280.84
  Q 204.38 278.12 204.87 270.31
  C 205.41 261.60 205.17 253.67 205.19 244.38
  A 0.80 0.79 10.9 0 0 204.68 243.64
  Q 203.23 243.08 201.73 243.45
  Q 193.08 245.55 188.10 246.70
  C 181.97 248.12 175.32 248.17 169.05 249.95
  A 6.43 6.21 -53.6 0 1 167.69 250.18
  Q 165.89 250.29 161.99 250.98
  C 156.92 251.88 156.10 254.16 153.40 259.09
  C 139.93 283.59 131.76 299.13 118.83 317.84
  C 116.74 320.87 114.95 324.49 110.54 323.64
  A 1.91 1.91 0.0 0 1 108.99 321.73
  Q 109.07 316.73 109.30 314.51
  Q 109.64 311.35 112.19 301.88
  C 114.30 294.01 117.95 285.82 120.49 277.74
  C 122.23 272.20 125.71 265.39 127.33 260.06
  C 128.10 257.54 130.90 255.37 127.42 253.33
  C 122.83 250.64 118.28 251.07 115.27 245.88
  A 2.81 2.80 -42.6 0 1 115.40 242.86
  L 118.74 238.09
  A 1.71 1.57 -0.6 0 1 119.22 237.64
  L 125.13 233.88
  A 4.75 4.60 -70.4 0 1 126.08 233.41
  Q 136.02 229.86 138.21 228.98
  Q 140.15 228.19 141.35 225.62
  Q 144.19 219.57 156.49 190.96
  Q 159.92 182.97 166.30 168.87
  Q 175.87 147.72 180.95 137.44
  C 181.92 135.48 182.80 132.56 183.96 130.41
  Q 185.52 127.49 187.97 122.42
  Q 192.23 113.56 196.85 106.58
  C 200.29 101.37 204.64 98.36 211.07 100.43
  Q 212.35 100.84 213.58 102.31
  A 2.20 2.16 -75.4 0 1 214.01 103.06
  C 218.09 114.51 218.74 124.03 220.65 139.50
  C 221.33 144.94 221.48 150.25 221.98 156.00
  Q 223.84 177.44 223.41 214.99
  A 4.26 4.19 -32.1 0 1 222.98 216.80
  C 221.42 219.99 220.95 224.56 224.38 226.94
  A 1.81 1.78 -26.0 0 0 225.34 227.26
  Q 231.45 227.55 235.74 231.58
  A 0.67 0.66 43.5 0 1 235.77 232.52
  Z
  M 204.33 224.37
  A 1.34 1.32 80.2 0 0 205.16 223.18
  Q 205.50 209.55 204.15 194.55
  Q 203.97 192.64 202.26 178.45
  C 201.99 176.20 202.10 173.95 202.06 171.25
  C 202.02 168.06 197.68 164.09 195.52 168.67
  Q 189.99 180.38 184.31 195.13
  Q 183.16 198.12 181.46 201.73
  C 178.77 207.46 177.99 209.66 175.27 214.57
  Q 173.26 218.21 172.46 221.26
  A 2.00 2.00 0.0 0 0 173.27 223.41
  Q 174.62 224.32 177.01 224.32
  Q 187.58 224.27 196.89 224.33
  C 199.42 224.35 202.04 225.29 204.33 224.37
  Z"
/>
<path d="
  M 295.03 236.35
  A 0.40 0.40 0.0 0 0 295.15 236.99
  C 301.66 240.07 307.69 245.72 312.83 250.96
  C 319.14 257.39 324.26 262.45 328.37 269.13
  Q 329.47 270.91 334.59 279.27
  C 340.39 288.74 343.92 298.47 347.56 309.31
  Q 348.43 311.91 348.58 313.72
  C 350.21 333.22 328.03 305.90 326.12 303.45
  C 324.30 301.11 321.41 298.52 319.05 295.61
  C 313.17 288.36 305.21 282.46 297.93 278.57
  Q 287.68 273.09 286.00 271.83
  Q 284.74 270.88 280.22 268.54
  Q 277.41 267.08 272.88 263.70
  Q 271.33 262.55 268.87 262.96
  A 0.96 0.96 0.0 0 0 268.18 263.49
  L 266.52 267.07
  A 3.07 2.98 -25.7 0 0 266.37 267.48
  C 261.42 284.42 258.51 300.07 255.14 319.66
  C 254.52 323.29 253.30 327.99 252.18 331.93
  Q 251.45 334.50 250.69 335.46
  A 1.85 1.85 0.0 0 1 247.81 335.47
  Q 245.66 332.82 245.40 329.27
  Q 242.95 295.23 248.08 262.76
  Q 248.29 261.41 248.74 249.53
  C 248.94 244.41 248.07 239.23 248.14 234.38
  A 4.06 4.04 -24.6 0 1 249.10 231.82
  C 253.31 226.82 254.47 220.18 255.97 212.24
  Q 261.68 181.83 264.92 169.38
  Q 265.63 166.67 266.22 165.48
  A 1.24 1.23 42.3 0 0 266.16 164.27
  Q 264.31 161.27 261.14 161.94
  C 257.22 162.76 252.80 163.33 249.77 160.87
  A 1.08 1.07 -70.1 0 1 249.39 160.05
  L 249.39 153.69
  A 1.50 1.48 -24.9 0 1 249.75 152.72
  Q 254.12 147.61 255.60 146.34
  Q 260.36 142.23 262.36 140.14
  C 265.85 136.49 270.73 133.63 274.36 131.37
  C 277.46 129.44 280.11 122.53 281.30 119.49
  C 282.32 116.88 284.18 113.84 285.45 111.45
  C 287.42 107.71 290.97 102.55 295.59 101.82
  A 2.53 2.53 0.0 0 1 297.77 102.53
  L 300.87 105.62
  A 1.41 1.40 23.0 0 1 301.27 106.60
  L 301.27 111.07
  A 2.00 1.98 -60.6 0 0 301.55 112.09
  L 302.87 114.39
  A 2.72 2.70 70.8 0 0 305.60 115.72
  C 309.21 115.20 312.29 113.40 315.66 112.40
  C 323.72 110.03 330.63 107.61 338.34 106.22
  Q 343.13 105.36 347.90 104.35
  A 11.34 11.03 38.0 0 1 350.11 104.11
  Q 364.70 103.99 377.49 104.14
  Q 379.13 104.16 384.69 105.70
  C 394.10 108.29 401.01 114.11 404.81 123.25
  C 408.39 131.87 406.80 139.22 404.39 147.78
  Q 399.18 166.26 385.55 180.78
  Q 375.03 191.99 367.43 198.14
  Q 358.51 205.37 347.40 212.51
  Q 337.45 218.91 325.63 223.98
  Q 310.73 230.39 298.37 234.35
  Q 296.26 235.03 295.03 236.35
  Z
  M 278.36 222.64
  Q 281.88 225.13 284.98 223.92
  Q 300.62 217.81 304.56 216.33
  Q 305.96 215.80 309.48 213.44
  C 313.86 210.49 320.20 207.81 323.16 205.91
  Q 341.68 194.04 357.57 179.57
  Q 368.86 169.29 376.35 157.37
  C 378.96 153.20 382.12 145.72 380.19 141.30
  C 378.70 137.88 376.71 136.09 372.81 135.45
  C 368.70 134.78 365.75 134.81 359.41 134.85
  C 355.88 134.88 352.92 135.71 349.82 135.61
  Q 346.60 135.52 342.76 136.60
  C 338.38 137.84 333.30 138.22 328.82 139.68
  Q 319.19 142.81 309.56 146.06
  C 306.95 146.94 296.47 150.82 295.62 154.40
  Q 292.61 166.99 291.02 175.29
  Q 289.77 181.81 279.99 218.02
  Q 279.14 221.19 278.33 221.87
  A 0.49 0.48 43.0 0 0 278.36 222.64
  Z"
/>
<path d="
  M 408.33 347.47
  Q 412.15 341.07 417.67 337.66
  Q 440.21 323.68 443.57 321.32
  Q 446.93 318.97 453.77 312.73
  Q 459.52 307.48 462.79 302.89
  Q 469.74 293.13 473.31 281.31
  Q 481.27 254.91 468.02 232.51
  C 462.95 223.92 452.72 211.32 447.54 203.75
  C 442.44 196.28 439.41 187.46 440.29 177.85
  Q 441.39 165.81 444.58 155.06
  Q 445.99 150.29 447.93 146.68
  Q 459.11 125.89 479.41 114.65
  C 486.70 110.61 496.55 108.43 505.01 106.62
  A 10.23 10.21 -51.1 0 1 506.97 106.41
  Q 521.11 106.33 530.49 106.45
  Q 531.82 106.47 534.18 108.03
  A 1.08 1.08 0.0 0 1 534.66 108.93
  L 534.66 113.09
  A 1.67 1.67 0.0 0 1 534.22 114.22
  Q 530.22 118.61 528.56 119.56
  Q 526.40 120.79 524.27 122.27
  Q 523.23 123.00 519.78 124.58
  Q 510.56 128.80 505.96 130.66
  C 488.91 137.54 472.56 149.63 469.18 168.67
  C 468.18 174.32 471.43 183.42 474.59 188.49
  Q 478.70 195.09 483.53 201.23
  Q 484.93 203.02 489.92 211.18
  Q 490.77 212.57 493.65 217.34
  Q 502.47 231.93 502.51 249.26
  Q 502.52 253.32 502.08 259.64
  C 500.95 275.91 493.92 292.75 483.07 305.05
  C 478.55 310.18 475.39 314.98 470.49 319.19
  Q 459.30 328.82 446.94 335.93
  Q 445.59 336.71 431.43 344.06
  C 427.50 346.10 424.17 347.27 420.17 348.87
  C 416.58 350.30 411.68 350.80 408.48 348.27
  A 0.62 0.61 34.9 0 1 408.33 347.47
  Z"
/>
<path d="
  M 395.84 330.99
  C 392.86 328.92 391.60 324.45 391.18 320.81
  Q 390.21 312.36 389.79 302.45
  C 389.37 292.46 390.21 282.15 390.36 271.69
  Q 390.43 266.92 391.20 259.37
  Q 395.63 215.81 404.17 172.92
  Q 404.82 169.65 406.48 163.72
  Q 408.98 154.78 413.25 139.46
  Q 416.12 129.19 421.70 120.73
  C 425.12 115.55 429.06 110.39 435.15 111.37
  C 437.90 111.81 438.92 114.18 439.83 116.59
  A 3.86 3.84 34.5 0 1 440.07 117.87
  Q 440.12 123.24 440.11 127.23
  C 440.10 131.77 438.94 135.74 438.53 140.49
  Q 438.37 142.34 437.61 145.76
  Q 433.11 166.13 432.08 173.03
  Q 430.23 185.51 428.58 192.31
  Q 422.98 215.36 414.45 250.64
  Q 409.68 270.31 407.07 284.96
  Q 403.99 302.19 402.57 319.77
  C 402.32 322.89 401.62 327.84 399.60 330.39
  A 2.82 2.76 -53.4 0 1 395.84 330.99
  Z"
/>
<path d="
  M 615.68 281.33
  C 612.43 288.28 607.88 293.87 601.49 299.73
  Q 587.41 312.65 571.37 322.10
  Q 560.36 328.58 546.55 331.13
  Q 541.56 332.05 537.05 331.21
  Q 530.71 330.02 528.06 327.97
  C 522.46 323.63 518.29 318.76 515.93 311.56
  Q 511.02 296.60 511.96 281.00
  Q 513.02 263.20 514.95 248.53
  C 515.26 246.22 516.10 243.81 516.36 242.30
  A 3.11 3.11 0.0 0 0 515.21 239.33
  C 513.17 237.72 510.64 236.32 509.38 234.04
  A 1.34 1.33 -52.3 0 1 509.26 233.07
  Q 510.45 228.46 512.16 227.16
  C 515.72 224.44 518.62 222.95 520.32 219.57
  C 521.84 216.55 522.53 212.30 523.85 208.07
  Q 531.84 182.37 541.77 157.78
  Q 542.39 156.23 544.09 153.44
  A 0.69 0.69 0.0 0 0 543.95 152.56
  C 541.25 150.16 538.50 150.11 534.28 149.43
  Q 532.87 149.20 530.48 146.74
  A 1.65 1.61 -67.7 0 1 530.02 145.60
  L 530.02 141.29
  A 2.35 2.31 -29.7 0 1 530.36 140.08
  Q 533.93 134.22 538.34 131.57
  C 546.95 126.40 557.91 122.29 566.33 120.59
  Q 576.01 118.63 578.29 118.04
  Q 580.72 117.40 583.76 117.41
  C 586.35 117.42 588.63 116.66 591.11 116.67
  Q 595.95 116.69 601.98 115.39
  A 10.66 10.44 -49.4 0 1 604.48 115.17
  C 610.33 115.36 615.57 114.30 621.16 114.32
  Q 632.20 114.37 650.50 114.33
  Q 651.87 114.32 653.82 114.73
  A 2.06 1.95 12.5 0 1 655.43 117.11
  Q 655.25 117.91 654.11 118.88
  C 648.72 123.45 641.43 125.38 632.75 127.75
  C 625.38 129.76 616.22 131.89 606.32 135.01
  Q 601.93 136.39 593.87 138.86
  C 586.53 141.12 578.96 142.71 572.18 144.94
  C 568.59 146.13 566.56 149.41 566.59 153.39
  C 566.60 155.48 565.50 157.17 564.94 159.64
  Q 560.22 180.36 553.66 201.98
  C 552.93 204.36 552.73 206.27 551.57 208.25
  A 1.97 1.97 0.0 0 0 552.87 211.17
  C 560.87 212.82 568.79 209.53 576.78 209.16
  Q 580.29 209.01 593.47 207.08
  Q 597.33 206.52 604.41 205.97
  Q 609.60 205.57 615.26 204.27
  Q 617.14 203.84 619.53 204.72
  A 0.96 0.96 0.0 0 1 620.15 205.43
  Q 620.64 207.65 618.71 209.49
  Q 613.13 214.82 604.13 218.88
  Q 589.15 225.62 573.61 230.81
  Q 562.57 234.50 547.88 237.74
  Q 545.02 238.37 544.50 238.89
  C 542.48 240.89 542.29 242.45 542.07 245.44
  A 4.21 3.91 58.8 0 1 541.85 246.50
  C 539.51 253.19 538.57 263.37 537.71 267.65
  C 536.57 273.29 536.74 278.44 535.71 284.19
  Q 534.70 289.82 535.37 293.97
  Q 536.29 299.68 538.05 304.08
  A 3.06 3.02 -81.8 0 0 538.92 305.26
  Q 545.08 310.24 552.73 310.46
  A 7.11 6.95 -50.2 0 0 554.59 310.27
  Q 564.04 308.04 572.62 304.36
  C 577.63 302.22 584.72 298.37 590.23 294.42
  Q 601.50 286.34 609.26 280.77
  Q 611.66 279.06 614.97 279.86
  A 1.06 1.05 19.5 0 1 615.68 281.33
  Z"
/>
</g>
</svg>
