<svg xmlns="http://www.w3.org/2000/svg" viewBox="0 0 240 42" width="240" height="42">
  <defs>
    <!-- Labyrinth/circuit pattern overlay (dimmer for hover) -->
    <pattern id="circuit-h" x="0" y="0" width="60" height="42" patternUnits="userSpaceOnUse">
      <path d="M0 8 H12 V4 H20 V8 H28 V14 H20 V10 H12 V14 H0" fill="none" stroke="rgba(138,43,226,0.07)" stroke-width="0.7"/>
      <path d="M32 6 H40 V12 H48 V6 H60" fill="none" stroke="rgba(138,43,226,0.06)" stroke-width="0.5"/>
      <path d="M0 22 H8 V18 H16 V26 H8 V22" fill="none" stroke="rgba(138,43,226,0.06)" stroke-width="0.6"/>
      <path d="M20 20 H30 V28 H22 V24 H30" fill="none" stroke="rgba(138,43,226,0.07)" stroke-width="0.5"/>
      <path d="M36 18 H44 V22 H52 V18 H60" fill="none" stroke="rgba(138,43,226,0.05)" stroke-width="0.6"/>
      <path d="M40 26 H48 V32 H40 V28 H52 V34 H60" fill="none" stroke="rgba(138,43,226,0.06)" stroke-width="0.5"/>
      <path d="M0 34 H10 V30 H18 V36 H10 V38 H22 V34" fill="none" stroke="rgba(138,43,226,0.06)" stroke-width="0.6"/>
      <path d="M28 32 H36 V38 H44 V34 H36" fill="none" stroke="rgba(138,43,226,0.07)" stroke-width="0.5"/>
      <path d="M15 0 V4" fill="none" stroke="rgba(138,43,226,0.06)" stroke-width="0.4"/>
      <path d="M45 0 V6" fill="none" stroke="rgba(138,43,226,0.05)" stroke-width="0.4"/>
    </pattern>
  </defs>

  <!-- Base dark background -->
  <rect x="0" y="0" width="240" height="42" rx="3" fill="#0a0a12"/>

  <!-- Circuit pattern (subtle) -->
  <rect x="0" y="0" width="240" height="42" rx="3" fill="url(#circuit-h)"/>

  <!-- Very subtle inner fill -->
  <rect x="2" y="2" width="236" height="38" rx="2" fill="rgba(138,43,226,0.04)"/>

  <!-- Single border frame (lighter than selected) -->
  <rect x="1" y="1" width="238" height="40" rx="3" fill="none" stroke="rgba(138,43,226,0.30)" stroke-width="0.8"/>

  <!-- Faint inner frame -->
  <rect x="4" y="4" width="232" height="34" rx="2" fill="none" stroke="rgba(138,43,226,0.12)" stroke-width="0.4"/>

  <!-- Corner accents (dimmer) -->
  <path d="M8 10 L12 6 L16 10" fill="none" stroke="rgba(179,136,255,0.25)" stroke-width="0.7" stroke-linecap="round"/>
  <path d="M224 10 L228 6 L232 10" fill="none" stroke="rgba(179,136,255,0.25)" stroke-width="0.7" stroke-linecap="round"/>
  <path d="M8 32 L12 36 L16 32" fill="none" stroke="rgba(179,136,255,0.20)" stroke-width="0.7" stroke-linecap="round"/>
  <path d="M224 32 L228 36 L232 32" fill="none" stroke="rgba(179,136,255,0.20)" stroke-width="0.7" stroke-linecap="round"/>
</svg>
