<?xml version="1.0" encoding="UTF-8" standalone="no"?>
<!DOCTYPE svg PUBLIC "-//W3C//DTD SVG 1.1//EN" "http://www.w3.org/Graphics/SVG/1.1/DTD/svg11.dtd">
<svg xmlns="http://www.w3.org/2000/svg" version="1.1" viewBox="0.00 0.00 1940.00 390.00">
<g stroke-width="2.00" fill="none" stroke-linecap="butt">
<path stroke="#4d2b6e" vector-effect="non-scaling-stroke" d="
  M 784.23 19.36
  Q 773.36 24.32 761.29 26.76"
/>
<path stroke="#4d2b6e" vector-effect="non-scaling-stroke" d="
  M 743.01 24.87
  Q 738.04 22.55 732.43 22.14"
/>
<path stroke="#5b3288" vector-effect="non-scaling-stroke" d="
  M 1041.24 30.92
  Q 1047.66 32.90 1054.30 33.37
  C 1061.09 33.84 1068.95 31.98 1076.01 32.68
  Q 1091.82 34.26 1104.51 34.25
  Q 1299.28 34.02 1538.14 34.24
  Q 1545.84 34.25 1547.85 33.61
  C 1556.10 30.97 1563.31 26.55 1571.69 21.69
  A 4.77 4.75 38.1 0 1 1575.45 21.24
  C 1586.13 24.43 1594.89 32.01 1604.95 36.76
  C 1623.49 45.52 1645.36 48.92 1665.33 43.63
  Q 1672.32 41.78 1675.96 38.45
  Q 1681.75 33.16 1685.09 30.35
  A 3.32 2.84 -8.1 0 0 1685.68 29.68
  L 1688.51 25.31
  A 3.66 3.65 -76.3 0 1 1691.23 23.65
  Q 1693.77 23.39 1727.44 19.98
  C 1730.17 19.71 1732.28 19.01 1734.73 19.05
  C 1738.54 19.10 1741.35 18.56 1744.74 18.33
  Q 1746.27 18.22 1746.87 19.13
  A 1.32 1.27 -25.5 0 1 1746.15 21.05
  C 1739.07 23.40 1729.13 28.20 1728.00 36.71
  Q 1727.60 39.75 1728.54 41.90
  Q 1729.21 43.41 1731.54 42.82"
/>
<path stroke="#5b3288" vector-effect="non-scaling-stroke" d="
  M 1742.55 53.89
  Q 1748.59 57.48 1754.94 60.07
  C 1758.56 61.55 1761.01 60.85 1764.07 59.39
  A 0.62 0.61 -48.7 0 0 1764.00 58.25
  L 1756.97 56.01"
/>
<path stroke="#5b3288" vector-effect="non-scaling-stroke" d="
  M 1878.36 67.19
  L 1893.11 70.25
  A 0.90 0.90 0.0 0 1 1893.56 71.77
  L 1892.97 72.36
  A 0.49 0.49 0.0 0 1 1892.68 72.50
  L 1884.18 73.44
  A 0.14 0.14 0.0 0 0 1884.12 73.69
  L 1890.95 78.20"
/>
<path stroke="#5b3288" vector-effect="non-scaling-stroke" d="
  M 1889.90 78.22
  C 1882.61 75.26 1875.98 74.32 1867.94 75.54
  C 1859.98 76.74 1853.84 77.62 1846.55 80.22
  A 1.74 1.73 -80.0 0 0 1845.81 80.74
  Q 1844.28 82.66 1841.15 83.44
  A 0.06 0.06 0.0 0 0 1841.10 83.50
  L 1841.09 83.79
  A 0.23 0.23 0.0 0 0 1841.35 84.03
  Q 1850.77 82.53 1860.25 82.68
  Q 1864.82 82.75 1869.09 82.76"
/>
<path stroke="#4d2b6e" vector-effect="non-scaling-stroke" d="
  M 1895.06 96.54
  Q 1879.58 91.56 1863.24 93.33
  Q 1854.95 94.22 1846.78 96.32
  A 0.22 0.21 -46.6 0 0 1846.79 96.74
  L 1851.90 97.71"
/>
<path stroke="#4d2b6e" vector-effect="non-scaling-stroke" d="
  M 1913.82 122.23
  Q 1912.32 118.43 1904.14 118.40"
/>
<path stroke="#5b3288" vector-effect="non-scaling-stroke" d="
  M 1855.92 117.62
  Q 1854.11 116.70 1851.10 116.96
  A 0.36 0.36 0.0 0 0 1850.82 117.49
  Q 1850.94 117.70 1851.20 117.76
  Q 1860.69 119.80 1870.23 121.89"
/>
<path stroke="#4d2b6e" vector-effect="non-scaling-stroke" d="
  M 1843.97 126.62
  L 1827.02 127.48
  A 2.46 2.43 20.7 0 0 1825.42 128.19
  L 1822.72 130.89
  A 0.29 0.29 0.0 0 0 1823.07 131.35
  Q 1829.56 127.79 1836.98 128.35"
/>
<path stroke="#4d2b6e" vector-effect="non-scaling-stroke" d="
  M 1821.14 137.21
  Q 1818.24 138.34 1815.60 138.14
  A 0.59 0.58 72.2 0 0 1815.11 139.10
  C 1819.13 143.98 1822.67 150.82 1815.81 155.12
  C 1814.49 155.94 1812.47 156.25 1811.00 156.69
  A 2.02 2.01 11.9 0 0 1810.03 157.32
  Q 1808.66 158.93 1808.02 160.91"
/>
<path stroke="#4d2b6e" vector-effect="non-scaling-stroke" d="
  M 1882.49 171.41
  Q 1879.57 171.68 1876.78 172.36
  C 1874.52 172.91 1874.04 174.01 1873.12 175.73
  A 0.38 0.38 0.0 0 0 1873.48 176.29
  C 1876.64 176.09 1879.55 173.73 1882.25 172.17"
/>
<path stroke="#4d2b6e" vector-effect="non-scaling-stroke" d="
  M 1915.47 178.20
  Q 1899.15 182.08 1886.66 190.41
  Q 1885.34 191.29 1885.64 193.53"
/>
<path stroke="#4d2b6e" vector-effect="non-scaling-stroke" d="
  M 1877.17 243.55
  Q 1872.69 249.66 1866.58 253.39"
/>
<path stroke="#4d2b6e" vector-effect="non-scaling-stroke" d="
  M 1825.45 281.52
  L 1801.66 280.09
  A 0.38 0.38 0.0 0 0 1801.38 280.75
  Q 1805.25 284.49 1803.03 289.09
  C 1799.96 295.47 1791.68 298.28 1785.23 298.24
  Q 1784.20 298.23 1783.97 298.67"
/>
<path stroke="#4d2b6e" vector-effect="non-scaling-stroke" d="
  M 1781.97 298.65
  L 1776.91 298.70
  A 0.42 0.41 84.7 0 0 1776.51 299.19
  L 1777.06 301.95"
/>
<path stroke="#4d2b6e" vector-effect="non-scaling-stroke" d="
  M 1775.13 306.14
  C 1769.38 308.82 1764.05 306.35 1758.86 305.80
  A 0.56 0.56 0.0 0 0 1758.38 306.73
  Q 1761.53 310.27 1766.39 311.35
  Q 1769.65 312.08 1776.09 311.46"
/>
<path stroke="#4d2b6e" vector-effect="non-scaling-stroke" d="
  M 1858.13 335.28
  Q 1842.74 334.90 1828.20 338.46
  C 1825.22 339.19 1822.86 340.49 1820.52 342.27
  Q 1817.03 344.93 1813.80 348.56"
/>
<path stroke="#4d2b6e" vector-effect="non-scaling-stroke" d="
  M 1811.54 350.73
  L 1803.90 359.32"
/>
<path stroke="#4d2b6e" vector-effect="non-scaling-stroke" d="
  M 1729.55 329.01
  Q 1731.27 328.39 1732.29 326.98
  A 0.53 0.52 34.0 0 0 1732.14 326.22
  Q 1722.82 320.59 1714.50 313.15
  Q 1712.59 311.44 1709.83 311.86
  Q 1708.06 312.13 1705.45 314.23
  Q 1688.39 328.00 1667.88 335.86
  A 0.39 0.38 -33.6 0 0 1667.75 336.49
  Q 1669.48 338.14 1671.76 339.11"
/>
<path stroke="#4d2b6e" vector-effect="non-scaling-stroke" d="
  M 1665.88 341.64
  Q 1662.73 341.06 1661.21 340.25
  A 5.86 5.86 0.0 0 0 1657.55 339.65
  Q 1649.95 340.87 1645.48 341.35
  C 1641.95 341.73 1638.97 340.26 1635.47 340.97
  C 1633.44 341.39 1631.73 340.72 1629.80 340.56
  A 3.90 3.82 -50.1 0 0 1628.40 340.70
  Q 1605.12 347.79 1582.34 351.82
  Q 1578.51 352.49 1576.85 353.14
  C 1569.18 356.11 1561.57 360.10 1554.90 363.93
  Q 1549.22 367.19 1545.78 373.15"
/>
<path stroke="#4d2b6e" vector-effect="non-scaling-stroke" d="
  M 1517.00 382.85
  C 1516.16 379.11 1514.22 373.01 1510.21 371.53
  Q 1495.70 366.16 1474.27 359.76
  Q 1455.00 354.01 1428.62 351.17
  Q 1426.76 350.97 1423.51 351.63
  C 1422.08 351.92 1420.62 351.73 1419.43 351.69
  A 0.51 0.51 0.0 0 0 1418.92 352.30
  Q 1419.06 352.99 1419.85 353.82"
/>
<path stroke="#4d2b6e" vector-effect="non-scaling-stroke" d="
  M 1186.78 354.53
  Q 1186.87 354.32 1186.85 354.11
  A 0.43 0.42 3.9 0 0 1186.52 353.74
  Q 1179.74 352.15 1176.75 352.17
  Q 1154.29 352.32 1152.36 352.31
  C 1145.37 352.29 1140.49 355.34 1132.36 359.13
  A 4.17 4.16 -45.4 0 1 1128.91 359.16
  Q 1121.62 355.90 1112.46 353.55
  C 1110.34 353.00 1107.68 352.73 1105.75 352.71
  Q 1094.17 352.59 1077.25 352.32
  Q 1074.04 352.27 1068.43 352.95
  A 1.53 1.48 -46.0 0 1 1068.13 352.96
  L 1046.36 352.01
  A 8.14 8.03 34.8 0 0 1042.94 352.60
  Q 1036.84 355.09 1029.78 355.13
  Q 1029.52 355.13 1029.26 355.32
  Q 1029.02 355.48 1028.90 355.73"
/>
<path stroke="#5b3288" vector-effect="non-scaling-stroke" d="
  M 1016.02 348.18
  L 1019.33 348.13
  A 0.44 0.44 0.0 0 0 1019.60 347.35
  C 1014.50 343.23 1007.71 339.82 1000.98 339.84
  Q 958.23 339.95 922.17 339.94
  A 7.55 7.52 31.4 0 0 918.75 340.76
  Q 910.35 345.03 900.71 347.66
  A 0.26 0.26 0.0 0 0 900.78 348.18
  L 925.49 348.17"
/>
<path stroke="#4d2b6e" vector-effect="non-scaling-stroke" d="
  M 916.99 351.13
  Q 913.81 351.14 910.83 350.35
  A 7.28 7.01 -37.0 0 0 908.95 350.12
  Q 880.96 350.60 868.15 350.85
  C 863.00 350.95 859.72 352.12 855.01 354.01
  Q 843.61 358.61 836.20 364.71
  C 834.67 365.96 833.36 366.22 831.62 366.41
  Q 826.00 367.05 819.29 366.26
  Q 798.40 363.81 777.43 359.56"
/>
<path stroke="#5b3288" vector-effect="non-scaling-stroke" d="
  M 819.24 348.10
  L 813.00 346.86
  A 0.51 0.50 16.3 0 1 812.62 346.18
  Q 813.80 343.08 810.95 340.39
  A 0.82 0.81 -22.6 0 0 810.43 340.18
  L 800.61 339.75
  A 0.34 0.34 0.0 0 0 800.51 340.41
  Q 804.75 341.51 807.70 343.63
  A 0.73 0.72 47.6 0 1 807.65 344.84
  Q 806.25 345.67 804.29 345.26
  C 785.97 341.49 768.97 339.78 749.13 339.92
  Q 740.17 339.98 697.37 339.92
  A 8.51 8.37 34.8 0 0 694.56 340.40
  Q 687.61 342.87 681.18 347.62
  A 0.28 0.28 0.0 0 0 681.35 348.13
  L 694.07 348.12"
/>
<path stroke="#4d2b6e" vector-effect="non-scaling-stroke" d="
  M 689.87 350.79
  L 677.60 350.97"
/>
<path stroke="#5b3288" vector-effect="non-scaling-stroke" d="
  M 663.87 347.75
  Q 644.46 342.07 623.78 347.55
  A 0.26 0.25 -52.1 0 0 623.84 348.05
  L 638.07 348.17"
/>
<path stroke="#4d2b6e" vector-effect="non-scaling-stroke" d="
  M 627.55 350.99
  Q 619.70 350.53 614.62 351.13
  Q 610.36 351.64 605.99 355.51"
/>
<path stroke="#5b3288" vector-effect="non-scaling-stroke" d="
  M 479.06 347.96
  Q 505.08 343.37 531.30 340.34
  A 0.29 0.29 0.0 0 0 531.56 340.03
  L 531.56 340.01
  A 0.13 0.12 -2.4 0 0 531.43 339.90
  Q 435.87 339.98 327.32 339.93
  Q 307.73 339.92 299.72 340.78
  Q 284.99 342.36 272.44 345.22
  Q 261.88 347.62 253.20 353.97
  C 248.58 357.35 245.27 360.10 239.00 359.81
  Q 221.12 359.01 207.76 360.51
  C 202.05 361.15 196.90 362.32 190.17 363.79
  C 183.09 365.34 175.73 366.12 167.69 366.76
  A 0.40 0.40 0.0 0 1 167.36 366.10
  Q 168.19 365.15 169.55 364.37
  Q 188.40 353.49 201.39 345.90
  Q 204.96 343.81 207.07 340.72"
/>
<path stroke="#5b3288" vector-effect="non-scaling-stroke" d="
  M 209.65 338.33
  Q 214.98 336.37 213.04 332.97"
/>
<path stroke="#5b3288" vector-effect="non-scaling-stroke" d="
  M 213.19 317.56
  Q 213.53 312.66 209.48 309.27
  Q 194.07 296.34 174.71 290.48
  C 168.60 288.64 162.07 288.76 156.00 288.88
  Q 132.41 289.34 112.49 291.70
  Q 107.57 292.28 105.23 291.87
  Q 89.20 289.10 64.52 285.21
  Q 57.01 284.02 49.73 283.84
  A 0.53 0.52 -74.2 0 1 49.29 283.05
  C 49.80 282.19 50.83 281.58 51.84 281.36
  Q 75.82 276.22 98.76 265.48
  A 9.13 9.06 -62.5 0 1 100.99 264.77
  Q 101.31 264.72 103.26 264.33
  Q 110.43 262.89 132.18 260.19
  C 149.09 258.09 164.93 251.42 178.47 240.76
  Q 181.34 238.51 184.46 234.70
  C 188.01 230.39 190.53 227.32 192.10 222.51
  A 1.72 1.71 29.9 0 0 191.60 220.69
  Q 189.19 218.60 186.73 217.61"
/>
<path stroke="#4d2b6e" vector-effect="non-scaling-stroke" d="
  M 71.27 180.87
  L 80.12 180.90"
/>
<path stroke="#4d2b6e" vector-effect="non-scaling-stroke" d="
  M 90.06 117.78
  Q 90.72 116.94 90.17 115.93"
/>
<path stroke="#4d2b6e" vector-effect="non-scaling-stroke" d="
  M 106.63 111.57
  C 109.61 112.33 116.66 114.15 119.28 112.30
  Q 122.21 110.24 121.25 105.44"
/>
<path stroke="#4d2b6e" vector-effect="non-scaling-stroke" d="
  M 79.41 66.95
  Q 86.34 66.90 93.09 65.69
  Q 96.33 65.11 99.01 63.29
  Q 100.43 62.32 100.32 61.23"
/>
<path stroke="#4d2b6e" vector-effect="non-scaling-stroke" d="
  M 117.64 56.44
  Q 121.45 57.22 123.93 60.34
  C 126.40 63.46 129.78 68.51 133.08 71.21
  C 145.30 81.23 163.46 80.41 177.29 73.93"
/>
<path stroke="#4d2b6e" vector-effect="non-scaling-stroke" d="
  M 205.49 58.62
  Q 216.77 60.75 224.23 55.66"
/>
<path stroke="#4d2b6e" vector-effect="non-scaling-stroke" d="
  M 241.06 48.50
  Q 245.81 52.38 249.55 56.89
  C 251.90 59.72 254.27 62.28 257.01 63.53
  Q 267.90 68.49 283.28 71.92"
/>
<path stroke="#4d2b6e" vector-effect="non-scaling-stroke" d="
  M 274.07 91.62
  Q 259.71 90.89 249.72 100.30"
/>
<path stroke="#4d2b6e" vector-effect="non-scaling-stroke" d="
  M 214.85 99.90
  Q 210.01 99.12 204.88 99.91
  Q 199.85 100.67 198.46 105.07
  A 2.15 2.15 0.0 0 0 198.38 106.07
  C 199.03 110.15 203.24 112.77 206.60 114.43
  Q 213.99 118.09 218.05 119.22
  Q 222.73 120.53 227.02 121.76
  A 1.37 1.37 0.0 0 1 227.90 123.62
  Q 226.57 126.68 227.96 130.46"
/>
<path stroke="#4d2b6e" vector-effect="non-scaling-stroke" d="
  M 179.81 135.05
  Q 167.79 136.41 159.48 142.72
  C 154.86 146.24 154.51 152.96 158.09 157.52
  Q 160.33 160.35 163.84 162.36
  A 0.95 0.95 0.0 0 1 164.05 163.84
  C 160.62 167.44 154.75 168.62 151.42 170.01
  A 1.02 1.02 0.0 0 0 151.45 171.90
  L 166.19 177.54
  A 7.73 7.72 -34.6 0 0 169.03 178.06
  C 182.47 177.96 192.90 180.05 201.55 190.92
  Q 202.75 192.43 203.80 194.82
  A 0.60 0.60 0.0 0 0 204.48 195.16
  Q 206.60 194.65 208.70 194.98"
/>
<path stroke="#5b3288" vector-effect="non-scaling-stroke" d="
  M 208.70 194.98
  L 205.27 196.12
  A 0.58 0.58 0.0 0 0 204.89 196.80
  L 205.73 200.24
  A 0.61 0.60 75.6 0 0 206.46 200.68
  Q 210.34 199.68 211.34 199.32
  Q 214.07 198.35 214.75 201.12
  Q 217.21 211.09 226.97 211.20
  C 239.83 211.33 252.21 207.33 265.16 200.89
  Q 276.08 195.46 283.36 189.01"
/>
<path stroke="#5b3288" vector-effect="non-scaling-stroke" d="
  M 285.09 188.28
  Q 285.36 189.00 286.87 187.90
  Q 294.84 182.12 302.73 175.65"
/>
<path stroke="#5b3288" vector-effect="non-scaling-stroke" d="
  M 311.53 146.45
  Q 310.11 142.60 306.02 140.46
  Q 301.44 138.06 299.11 136.69
  A 2.44 2.43 37.8 0 1 298.62 132.87
  L 300.59 130.90
  A 0.36 0.35 -63.6 0 0 300.39 130.30
  L 295.04 129.54"
/>
<path stroke="#5b3288" vector-effect="non-scaling-stroke" d="
  M 304.76 114.41
  Q 307.71 113.88 310.65 113.52
  C 318.71 112.52 324.68 114.11 331.48 117.33
  A 4.09 3.98 59.3 0 0 332.86 117.70
  Q 337.17 118.05 349.26 117.50
  C 365.35 116.76 377.53 111.04 389.73 100.24
  Q 393.28 97.10 396.48 92.07
  Q 401.42 84.30 402.54 82.82
  Q 406.48 77.68 406.66 74.93
  C 407.37 63.90 387.77 58.51 379.44 56.65
  C 374.14 55.46 368.23 55.67 363.50 55.91
  Q 357.46 56.23 351.41 55.54"
/>
<path stroke="#5b3288" vector-effect="non-scaling-stroke" d="
  M 394.93 46.89
  Q 398.98 47.24 402.99 46.80
  C 410.90 45.94 418.60 45.36 428.66 44.53
  Q 434.61 44.03 441.87 42.46
  C 450.53 40.59 455.53 40.13 462.41 37.75
  Q 466.07 36.48 471.17 36.50
  A 3.12 2.98 -51.5 0 0 471.98 36.39
  L 490.44 31.12"
/>
<path stroke="#4d2b6e" vector-effect="non-scaling-stroke" d="
  M 524.55 19.96
  Q 524.86 20.45 525.33 20.65
  Q 541.95 27.57 559.50 30.45
  Q 560.34 30.59 565.00 30.84
  Q 567.28 30.97 570.50 31.52
  Q 577.27 32.70 589.99 31.02"
/>
<path stroke="#5b3288" vector-effect="non-scaling-stroke" d="
  M 696.64 26.21
  Q 701.27 28.48 706.45 28.89"
/>
<path stroke="#5b3288" vector-effect="non-scaling-stroke" d="
  M 732.08 30.65
  Q 738.63 33.46 743.49 33.82
  Q 754.63 34.66 771.61 34.34
  C 779.67 34.19 783.81 34.40 789.58 31.06"
/>
<path stroke="#5b3288" vector-effect="non-scaling-stroke" d="
  M 872.13 30.97
  L 883.44 33.57
  A 6.72 6.53 -41.0 0 0 885.61 33.69
  L 907.73 31.25
  A 10.29 10.24 49.7 0 1 911.61 31.58
  C 918.34 33.48 923.45 34.40 930.45 34.42
  Q 957.19 34.46 965.06 34.36
  Q 969.12 34.31 970.80 30.92"
/>
<path stroke="#4d2b6e" vector-effect="non-scaling-stroke" d="
  M 968.99 22.96
  C 967.71 20.52 965.34 19.73 963.48 17.92"
/>
<path stroke="#5b3288" vector-effect="non-scaling-stroke" d="
  M 817.77 348.29
  L 810.29 348.52"
/>
<path stroke="#5b3288" vector-effect="non-scaling-stroke" d="
  M 220.81 195.97
  C 220.03 200.57 222.13 207.76 228.37 205.48"
/>
<path stroke="#9a4edd" vector-effect="non-scaling-stroke" d="
  M 220.49 195.58
  Q 219.31 195.48 216.19 194.84
  Q 212.84 194.15 208.70 194.98"
/>
<path stroke="#4d2b6e" vector-effect="non-scaling-stroke" d="
  M 268.25 56.95
  L 248.99 49.24
  A 0.17 0.17 0.0 0 0 248.80 49.52
  C 252.14 53.18 255.74 58.55 260.30 60.48
  Q 265.96 62.87 276.45 66.12"
/>
<path stroke="#4d2b6e" vector-effect="non-scaling-stroke" d="
  M 213.94 55.10
  L 210.21 54.89"
/>
<path stroke="#5b3288" vector-effect="non-scaling-stroke" d="
  M 780.64 30.75
  Q 780.10 30.81 779.49 30.86
  Q 766.61 32.05 753.63 30.66"
/>
<path stroke="#4d2b6e" vector-effect="non-scaling-stroke" d="
  M 262.45 168.33
  C 261.50 165.81 257.96 162.93 256.46 161.50
  C 252.11 157.37 247.83 157.07 242.18 156.09"
/>
<path stroke="#4d2b6e" vector-effect="non-scaling-stroke" d="
  M 261.80 168.50
  Q 252.34 169.57 243.35 173.85
  Q 242.36 174.32 241.98 174.80"
/>
<path stroke="#4d2b6e" vector-effect="non-scaling-stroke" d="
  M 1015.49 356.96
  Q 1015.63 357.11 1015.93 357.21"
/>
<path stroke="#5b3288" vector-effect="non-scaling-stroke" d="
  M 1841.38 81.71
  L 1834.65 84.33
  A 0.13 0.13 0.0 0 0 1834.58 84.50
  L 1834.60 84.55
  A 3.57 1.38 -21.3 0 0 1838.42 84.54
  L 1838.74 84.41
  A 3.57 1.38 -21.3 0 0 1841.57 81.83
  L 1841.55 81.79
  A 0.13 0.13 0.0 0 0 1841.38 81.71"
/>
<path stroke="#5b3288" vector-effect="non-scaling-stroke" d="
  M 1829.85 86.40
  L 1833.75 85.70
  A 0.26 0.26 0.0 0 0 1833.84 85.23
  Q 1833.33 84.92 1832.73 85.14
  Q 1831.31 85.68 1829.84 86.36
  A 0.02 0.02 0.0 0 0 1829.85 86.40"
/>
<path stroke="#5b3288" vector-effect="non-scaling-stroke" d="
  M 1818.14 113.23
  L 1818.52 111.89
  A 0.37 0.37 0.0 0 0 1818.05 111.44
  Q 1816.62 111.89 1815.07 111.64
  A 0.88 0.87 -71.9 0 0 1814.14 112.12
  Q 1811.59 117.24 1810.58 122.40
  A 0.24 0.23 70.6 0 0 1810.99 122.60
  L 1816.61 115.68"
/>
<path stroke="#5b3288" vector-effect="non-scaling-stroke" d="
  M 1783.24 130.94
  C 1784.68 128.55 1782.52 127.32 1781.03 126.27
  A 0.42 0.42 0.0 0 0 1780.38 126.67
  Q 1780.78 129.72 1782.36 131.08
  A 0.59 0.58 -53.9 0 0 1783.24 130.94"
/>
<path stroke="#4d2b6e" vector-effect="non-scaling-stroke" d="
  M 1732.86 231.46
  L 1744.31 234.05
  A 0.16 0.16 0.0 0 0 1744.42 233.75
  C 1739.29 231.26 1730.49 225.95 1729.22 219.76
  A 0.81 0.81 0.0 0 0 1728.54 219.11
  L 1716.32 217.26"
/>
<path stroke="#4d2b6e" vector-effect="non-scaling-stroke" d="
  M 1671.60 181.17
  Q 1657.33 179.13 1643.19 177.13
  Q 1640.64 176.76 1638.53 177.11
  A 1.98 1.98 0.0 0 0 1637.31 177.84
  C 1633.30 183.02 1630.80 186.34 1625.26 189.30
  A 0.24 0.24 0.0 0 0 1625.35 189.75
  Q 1630.74 190.38 1635.79 189.60"
/>
<path stroke="#5b3288" vector-effect="non-scaling-stroke" d="
  M 1025.61 340.62
  L 1034.68 341.27
  L 1034.70 341.08
  A 4.44 0.79 4.1 0 0 1030.32 339.98
  L 1030.11 339.96
  A 4.44 0.79 4.1 0 0 1025.62 340.43
  L 1025.61 340.62"
/>
<path stroke="#4d2b6e" vector-effect="non-scaling-stroke" d="
  M 888.1799 347.8956
  A 3.50 0.27 -0.4 0 0 884.6781 347.6500
  A 3.50 0.27 -0.4 0 0 881.1801 347.9444
  A 3.50 0.27 -0.4 0 0 884.6819 348.1900
  A 3.50 0.27 -0.4 0 0 888.1799 347.8956"
/>
<path stroke="#4d2b6e" vector-effect="non-scaling-stroke" d="
  M 1599.10 265.62
  L 1595.65 264.38"
/>
<path stroke="#4d2b6e" vector-effect="non-scaling-stroke" d="
  M 1117.84 361.15
  L 1122.73 362.51
  A 0.06 0.06 0.0 0 0 1122.81 362.47
  L 1122.86 362.29
  A 1.33 0.81 15.6 0 0 1121.80 361.15
  L 1119.35 360.47
  A 1.33 0.81 15.6 0 0 1117.85 360.89
  L 1117.80 361.07
  A 0.06 0.06 0.0 0 0 1117.84 361.15"
/>
</g>
<g fill="#0e0e18">
<path d="
  M 784.23 19.36
  Q 773.36 24.32 761.29 26.76
  L 759.06 27.06
  A 0.18 0.18 0.0 0 0 759.00 27.40
  L 759.12 27.46
  A 0.09 0.09 0.0 0 1 759.08 27.62
  Q 750.68 27.75 743.01 24.87
  Q 738.04 22.55 732.43 22.14
  Q 731.75 21.58 730.71 21.32
  Q 724.54 19.79 717.98 18.47
  Q 717.42 18.36 717.20 18.16
  A 0.48 0.48 0.0 0 1 717.44 17.32
  Q 727.46 15.68 735.94 10.75
  Q 738.95 9.00 739.10 6.01
  A 0.70 0.69 88.6 0 1 739.72 5.35
  Q 741.32 5.19 743.91 6.36
  Q 757.56 12.49 772.91 15.26
  A 3.88 3.77 61.1 0 1 773.80 15.53
  Q 777.23 17.11 781.28 17.08
  A 1.96 1.75 -3.3 0 1 783.23 18.63
  Q 783.31 19.36 784.23 19.36
  Z"
/>
<path d="
  M 1041.24 30.92
  Q 1047.66 32.90 1054.30 33.37
  C 1061.09 33.84 1068.95 31.98 1076.01 32.68
  Q 1091.82 34.26 1104.51 34.25
  Q 1299.28 34.02 1538.14 34.24
  Q 1545.84 34.25 1547.85 33.61
  C 1556.10 30.97 1563.31 26.55 1571.69 21.69
  A 4.77 4.75 38.1 0 1 1575.45 21.24
  C 1586.13 24.43 1594.89 32.01 1604.95 36.76
  C 1623.49 45.52 1645.36 48.92 1665.33 43.63
  Q 1672.32 41.78 1675.96 38.45
  Q 1681.75 33.16 1685.09 30.35
  A 3.32 2.84 -8.1 0 0 1685.68 29.68
  L 1688.51 25.31
  A 3.66 3.65 -76.3 0 1 1691.23 23.65
  Q 1693.77 23.39 1727.44 19.98
  C 1730.17 19.71 1732.28 19.01 1734.73 19.05
  C 1738.54 19.10 1741.35 18.56 1744.74 18.33
  Q 1746.27 18.22 1746.87 19.13
  A 1.32 1.27 -25.5 0 1 1746.15 21.05
  C 1739.07 23.40 1729.13 28.20 1728.00 36.71
  Q 1727.60 39.75 1728.54 41.90
  Q 1729.21 43.41 1731.54 42.82
  L 1743.02 38.90
  A 3.64 3.62 14.9 0 0 1744.24 38.20
  L 1746.39 36.36
  A 1.18 1.18 0.0 0 1 1747.36 36.08
  L 1756.31 37.54
  A 0.59 0.58 40.0 0 1 1756.41 38.67
  Q 1753.80 39.56 1748.36 42.36
  C 1744.37 44.41 1741.44 47.66 1739.06 50.45
  A 0.72 0.72 0.0 0 0 1739.31 51.57
  Q 1741.44 52.53 1742.55 53.89
  Q 1748.59 57.48 1754.94 60.07
  C 1758.56 61.55 1761.01 60.85 1764.07 59.39
  A 0.62 0.61 -48.7 0 0 1764.00 58.25
  L 1756.97 56.01
  L 1765.48 57.19
  A 0.81 0.80 -11.9 0 1 1766.06 57.56
  Q 1766.66 58.46 1768.01 58.01
  Q 1772.77 56.42 1778.33 54.78
  Q 1785.84 52.55 1793.06 55.61
  A 5.96 5.91 -32.2 0 0 1795.17 56.08
  C 1799.88 56.24 1802.53 56.04 1805.91 58.38
  Q 1807.70 59.63 1810.26 60.12
  Q 1818.89 61.78 1827.74 60.06
  Q 1829.40 59.74 1840.82 58.95
  A 4.25 4.07 30.0 0 0 1842.21 58.61
  Q 1845.92 57.01 1849.63 58.31
  Q 1860.35 62.06 1867.56 64.85
  A 1.27 0.89 39.3 0 0 1867.72 64.90
  L 1878.36 67.19
  L 1893.11 70.25
  A 0.90 0.90 0.0 0 1 1893.56 71.77
  L 1892.97 72.36
  A 0.49 0.49 0.0 0 1 1892.68 72.50
  L 1884.18 73.44
  A 0.14 0.14 0.0 0 0 1884.12 73.69
  L 1890.95 78.20
  L 1889.90 78.22
  C 1882.61 75.26 1875.98 74.32 1867.94 75.54
  C 1859.98 76.74 1853.84 77.62 1846.55 80.22
  A 1.74 1.73 -80.0 0 0 1845.81 80.74
  Q 1844.28 82.66 1841.15 83.44
  A 0.06 0.06 0.0 0 0 1841.10 83.50
  L 1841.09 83.79
  A 0.23 0.23 0.0 0 0 1841.35 84.03
  Q 1850.77 82.53 1860.25 82.68
  Q 1864.82 82.75 1869.09 82.76
  Q 1877.08 84.10 1880.55 84.93
  C 1891.07 87.45 1905.19 93.66 1911.17 103.13
  A 0.32 0.32 0.0 0 1 1910.74 103.57
  Q 1903.38 99.26 1895.06 96.54
  Q 1879.58 91.56 1863.24 93.33
  Q 1854.95 94.22 1846.78 96.32
  A 0.22 0.21 -46.6 0 0 1846.79 96.74
  L 1851.90 97.71
  Q 1860.37 99.78 1868.02 103.29
  Q 1869.10 103.78 1876.76 104.41
  C 1891.90 105.66 1911.21 112.27 1919.85 125.29
  A 0.25 0.25 0.0 0 1 1919.51 125.64
  L 1913.82 122.23
  Q 1912.32 118.43 1904.14 118.40
  Q 1888.23 113.01 1871.00 114.74
  Q 1863.75 115.47 1855.92 117.62
  Q 1854.11 116.70 1851.10 116.96
  A 0.36 0.36 0.0 0 0 1850.82 117.49
  Q 1850.94 117.70 1851.20 117.76
  Q 1860.69 119.80 1870.23 121.89
  L 1878.84 125.96
  A 0.26 0.26 0.0 0 1 1878.73 126.45
  C 1867.20 126.31 1855.68 125.21 1843.97 126.62
  L 1827.02 127.48
  A 2.46 2.43 20.7 0 0 1825.42 128.19
  L 1822.72 130.89
  A 0.29 0.29 0.0 0 0 1823.07 131.35
  Q 1829.56 127.79 1836.98 128.35
  C 1833.21 129.94 1828.57 132.82 1824.33 132.28
  A 1.42 1.41 14.7 0 0 1822.85 133.14
  L 1821.14 137.21
  Q 1818.24 138.34 1815.60 138.14
  A 0.59 0.58 72.2 0 0 1815.11 139.10
  C 1819.13 143.98 1822.67 150.82 1815.81 155.12
  C 1814.49 155.94 1812.47 156.25 1811.00 156.69
  A 2.02 2.01 11.9 0 0 1810.03 157.32
  Q 1808.66 158.93 1808.02 160.91
  Q 1802.97 163.75 1799.70 166.85
  A 11.14 11.12 20.1 0 1 1793.28 169.82
  L 1787.78 170.43
  A 1.37 1.37 0.0 0 1 1786.71 168.06
  Q 1788.53 166.40 1790.53 161.40
  Q 1791.12 159.91 1791.19 155.67
  Q 1791.24 153.05 1792.46 149.32
  A 1.47 1.47 0.0 0 0 1790.18 147.68
  Q 1785.38 151.23 1777.73 149.77
  A 0.21 0.20 -68.3 0 1 1777.60 149.46
  L 1781.68 142.39
  A 0.80 0.80 0.0 0 0 1781.37 141.29
  Q 1773.42 136.98 1766.61 134.94
  A 2.20 2.11 -42.2 0 0 1765.51 134.91
  L 1760.46 136.15
  A 0.20 0.19 -45.3 0 0 1760.46 136.53
  Q 1760.94 136.64 1764.05 138.70
  Q 1765.73 139.81 1766.86 141.39
  A 0.49 0.49 0.0 0 1 1766.44 142.17
  L 1764.36 142.08
  A 0.38 0.38 0.0 0 0 1764.13 142.78
  Q 1768.71 145.81 1771.86 149.28
  A 5.02 4.87 -5.5 0 0 1773.11 150.28
  C 1778.82 153.50 1784.31 157.50 1787.54 163.38
  A 0.49 0.49 0.0 0 1 1786.86 164.04
  Q 1780.86 160.51 1774.46 158.34
  Q 1769.38 156.62 1762.73 156.41
  A 0.38 0.38 0.0 0 0 1762.59 157.14
  Q 1773.23 161.13 1780.95 169.48
  Q 1781.65 170.24 1784.34 171.21
  A 3.94 3.92 -11.5 0 1 1785.86 172.21
  C 1788.07 174.56 1792.98 177.68 1794.41 181.28
  A 1.07 1.07 0.0 0 0 1795.79 181.89
  Q 1805.67 178.17 1813.05 172.12
  Q 1814.94 170.57 1817.34 169.75
  Q 1821.47 168.35 1825.82 165.36
  A 0.20 0.06 -46.6 0 1 1825.89 165.32
  L 1837.42 160.79
  A 0.78 0.71 29.1 0 1 1837.63 160.74
  Q 1846.22 160.10 1852.47 153.50
  A 2.51 1.40 -38.3 0 1 1852.74 153.27
  L 1866.34 143.14
  A 2.08 2.05 -61.9 0 1 1867.66 142.73
  Q 1871.77 142.89 1875.02 144.84
  A 0.51 0.51 0.0 0 1 1875.06 145.68
  Q 1873.41 146.94 1872.99 147.66
  A 1.74 1.74 0.0 0 0 1873.82 150.15
  Q 1880.52 152.98 1886.48 150.06
  A 2.36 2.35 54.1 0 1 1889.16 150.49
  Q 1892.84 154.05 1897.53 155.55
  A 7.61 7.51 54.9 0 0 1899.41 155.89
  C 1906.70 156.26 1913.44 156.16 1919.71 159.56
  A 0.98 0.97 52.6 0 1 1919.47 161.37
  Q 1912.20 163.05 1903.46 167.84
  A 2.34 2.33 51.0 0 1 1900.81 167.56
  Q 1897.61 164.81 1893.79 167.48
  A 2.32 2.21 21.0 0 1 1892.90 167.85
  L 1887.89 168.75
  A 2.35 2.34 -68.6 0 0 1886.91 169.18
  Q 1884.81 170.75 1882.49 171.41
  Q 1879.57 171.68 1876.78 172.36
  C 1874.52 172.91 1874.04 174.01 1873.12 175.73
  A 0.38 0.38 0.0 0 0 1873.48 176.29
  C 1876.64 176.09 1879.55 173.73 1882.25 172.17
  Q 1884.57 172.07 1886.09 172.64
  C 1888.78 173.64 1892.00 172.10 1894.46 171.48
  A 3.29 3.28 59.2 0 1 1897.52 172.26
  Q 1901.51 175.98 1906.34 177.36
  A 2.60 2.56 54.9 0 0 1906.89 177.46
  L 1915.47 178.20
  Q 1899.15 182.08 1886.66 190.41
  Q 1885.34 191.29 1885.64 193.53
  Q 1884.14 196.52 1882.75 199.57
  C 1882.55 200.02 1882.57 200.58 1882.54 201.20
  Q 1882.51 201.56 1882.33 201.85
  Q 1878.83 207.23 1876.04 214.66
  A 1.10 1.05 53.2 0 0 1875.98 215.16
  L 1876.48 219.66
  A 0.34 0.33 -29.8 0 0 1877.08 219.82
  C 1878.04 218.52 1879.62 217.65 1881.23 217.45
  Q 1888.77 216.49 1893.11 210.25
  A 0.31 0.31 0.0 0 1 1893.68 210.45
  C 1893.24 218.04 1888.35 222.71 1882.37 229.86
  Q 1879.99 232.70 1878.84 236.20
  Q 1878.79 236.38 1877.34 239.75
  Q 1876.53 241.62 1877.17 243.55
  Q 1872.69 249.66 1866.58 253.39
  Q 1854.33 253.17 1841.62 253.69
  Q 1835.74 253.93 1832.04 257.90
  A 2.63 2.62 28.9 0 1 1829.42 258.65
  L 1819.14 255.90
  A 0.76 0.76 0.0 0 0 1818.23 256.39
  Q 1817.13 259.55 1819.29 262.00
  A 2.02 2.00 -6.6 0 0 1819.85 262.44
  L 1822.40 263.81
  A 0.53 0.52 43.0 0 1 1822.44 264.71
  Q 1819.75 266.41 1816.74 265.88
  Q 1811.27 264.91 1806.27 264.96
  A 0.22 0.22 0.0 0 0 1806.20 265.39
  Q 1808.68 266.29 1812.37 266.16
  A 5.60 5.59 -33.4 0 1 1814.96 266.69
  Q 1820.38 269.21 1827.60 270.70
  A 0.98 0.98 0.0 0 1 1828.11 272.33
  C 1825.44 275.15 1823.27 277.26 1825.45 281.52
  L 1801.66 280.09
  A 0.38 0.38 0.0 0 0 1801.38 280.75
  Q 1805.25 284.49 1803.03 289.09
  C 1799.96 295.47 1791.68 298.28 1785.23 298.24
  Q 1784.20 298.23 1783.97 298.67
  L 1781.97 298.65
  L 1776.91 298.70
  A 0.42 0.41 84.7 0 0 1776.51 299.19
  L 1777.06 301.95
  Q 1774.91 302.25 1774.29 303.49
  Q 1773.51 305.05 1775.13 306.14
  C 1769.38 308.82 1764.05 306.35 1758.86 305.80
  A 0.56 0.56 0.0 0 0 1758.38 306.73
  Q 1761.53 310.27 1766.39 311.35
  Q 1769.65 312.08 1776.09 311.46
  Q 1778.88 311.30 1781.95 309.92
  Q 1783.00 309.44 1784.07 310.15
  C 1785.58 311.15 1786.11 310.59 1787.47 311.17
  C 1792.03 313.10 1795.88 314.51 1800.51 312.90
  A 1.53 0.83 -41.1 0 0 1800.69 312.81
  L 1806.00 309.24
  A 1.48 1.48 0.0 0 0 1806.59 308.50
  L 1809.02 301.71
  A 0.81 0.79 -83.2 0 1 1809.67 301.19
  Q 1815.81 300.48 1821.15 296.47
  A 1.77 1.75 28.7 0 1 1822.37 296.12
  Q 1831.58 297.02 1838.61 302.38
  Q 1851.13 311.92 1861.16 325.34
  A 0.24 0.24 0.0 0 1 1860.86 325.69
  C 1854.54 322.36 1847.44 320.01 1840.24 319.66
  A 0.23 0.23 0.0 0 0 1840.10 320.08
  Q 1840.40 320.30 1841.12 320.34
  A 1.31 1.31 0.0 0 1 1841.81 320.58
  Q 1850.74 326.71 1858.13 335.28
  Q 1842.74 334.90 1828.20 338.46
  C 1825.22 339.19 1822.86 340.49 1820.52 342.27
  Q 1817.03 344.93 1813.80 348.56
  Q 1812.76 348.32 1811.54 350.73
  L 1803.90 359.32
  Q 1802.26 357.04 1800.85 353.45
  Q 1799.75 350.63 1796.78 350.84
  A 1.25 1.20 18.9 0 0 1796.02 351.19
  C 1793.49 353.79 1792.82 357.35 1792.25 360.84
  A 2.89 2.86 77.5 0 1 1791.06 362.73
  Q 1786.79 365.73 1783.75 370.17
  A 0.41 0.41 0.0 0 1 1783.24 370.32
  Q 1768.44 363.86 1752.99 361.68
  Q 1736.68 359.38 1719.77 361.17
  A 7.80 7.64 49.0 0 1 1717.02 360.95
  L 1702.57 357.08
  A 0.54 0.54 0.0 0 1 1702.69 356.02
  Q 1711.79 355.83 1720.38 354.14
  Q 1725.22 353.19 1728.31 350.38
  A 4.44 4.39 16.5 0 1 1730.24 349.35
  C 1733.98 348.43 1737.80 346.76 1739.94 343.35
  A 0.61 0.61 0.0 0 0 1739.47 342.41
  Q 1726.21 341.50 1713.78 343.22
  A 7.48 7.44 -41.4 0 1 1710.82 343.04
  L 1696.51 339.21
  A 0.39 0.39 0.0 0 1 1696.22 338.82
  L 1696.22 338.79
  A 0.69 0.68 -87.6 0 1 1696.89 338.17
  Q 1708.63 337.91 1718.01 335.06
  Q 1720.53 334.29 1722.37 331.98
  A 2.01 1.97 -80.4 0 1 1723.21 331.37
  L 1729.55 329.01
  Q 1731.27 328.39 1732.29 326.98
  A 0.53 0.52 34.0 0 0 1732.14 326.22
  Q 1722.82 320.59 1714.50 313.15
  Q 1712.59 311.44 1709.83 311.86
  Q 1708.06 312.13 1705.45 314.23
  Q 1688.39 328.00 1667.88 335.86
  A 0.39 0.38 -33.6 0 0 1667.75 336.49
  Q 1669.48 338.14 1671.76 339.11
  Q 1682.72 346.91 1691.07 356.99
  A 0.10 0.10 0.0 0 1 1690.93 357.14
  Q 1678.46 348.14 1665.88 341.64
  Q 1662.73 341.06 1661.21 340.25
  A 5.86 5.86 0.0 0 0 1657.55 339.65
  Q 1649.95 340.87 1645.48 341.35
  C 1641.95 341.73 1638.97 340.26 1635.47 340.97
  C 1633.44 341.39 1631.73 340.72 1629.80 340.56
  A 3.90 3.82 -50.1 0 0 1628.40 340.70
  Q 1605.12 347.79 1582.34 351.82
  Q 1578.51 352.49 1576.85 353.14
  C 1569.18 356.11 1561.57 360.10 1554.90 363.93
  Q 1549.22 367.19 1545.78 373.15
  Q 1537.66 376.51 1529.73 380.74
  Q 1525.59 382.94 1522.14 385.82
  A 1.02 1.01 43.7 0 1 1520.87 385.84
  L 1517.00 382.85
  C 1516.16 379.11 1514.22 373.01 1510.21 371.53
  Q 1495.70 366.16 1474.27 359.76
  Q 1455.00 354.01 1428.62 351.17
  Q 1426.76 350.97 1423.51 351.63
  C 1422.08 351.92 1420.62 351.73 1419.43 351.69
  A 0.51 0.51 0.0 0 0 1418.92 352.30
  Q 1419.06 352.99 1419.85 353.82
  Q 1407.81 354.07 1404.41 353.43
  Q 1400.68 352.71 1396.69 350.39
  Q 1394.77 349.26 1391.51 349.66
  Q 1379.89 351.08 1370.84 353.12
  Q 1367.38 353.90 1354.36 354.57
  A 0.43 0.43 0.0 0 0 1354.08 355.30
  L 1355.89 357.11
  A 0.12 0.12 0.0 0 1 1355.78 357.31
  L 1348.56 355.79
  A 5.99 5.80 -37.8 0 0 1347.28 355.65
  L 1337.23 355.61
  A 0.17 0.16 54.3 0 0 1337.18 355.93
  Q 1351.96 360.87 1363.55 369.59
  A 0.28 0.28 0.0 0 1 1363.30 370.09
  C 1344.26 364.56 1326.98 359.68 1310.24 359.33
  Q 1291.60 358.94 1289.39 358.84
  Q 1281.61 358.47 1277.52 356.69
  Q 1268.89 352.93 1268.76 352.85
  A 3.50 3.43 -38.3 0 0 1266.41 352.60
  L 1245.24 357.76
  A 9.44 9.08 -51.3 0 1 1243.24 358.02
  Q 1225.49 358.33 1209.45 362.92
  C 1206.79 363.68 1203.80 365.00 1201.29 365.65
  A 3.88 3.86 -45.2 0 1 1199.45 365.66
  Q 1186.91 362.67 1176.36 363.40
  Q 1164.84 364.19 1164.43 364.10
  A 0.37 0.37 0.0 0 1 1164.22 363.52
  Q 1165.36 362.04 1170.25 360.02
  Q 1178.22 356.72 1185.99 355.19
  Q 1186.92 355.01 1186.78 354.53
  Q 1186.87 354.32 1186.85 354.11
  A 0.43 0.42 3.9 0 0 1186.52 353.74
  Q 1179.74 352.15 1176.75 352.17
  Q 1154.29 352.32 1152.36 352.31
  C 1145.37 352.29 1140.49 355.34 1132.36 359.13
  A 4.17 4.16 -45.4 0 1 1128.91 359.16
  Q 1121.62 355.90 1112.46 353.55
  C 1110.34 353.00 1107.68 352.73 1105.75 352.71
  Q 1094.17 352.59 1077.25 352.32
  Q 1074.04 352.27 1068.43 352.95
  A 1.53 1.48 -46.0 0 1 1068.13 352.96
  L 1046.36 352.01
  A 8.14 8.03 34.8 0 0 1042.94 352.60
  Q 1036.84 355.09 1029.78 355.13
  Q 1029.52 355.13 1029.26 355.32
  Q 1029.02 355.48 1028.90 355.73
  Q 1028.18 355.27 1027.74 355.36
  Q 1024.55 356.00 1021.70 356.02
  A 0.31 0.31 0.0 0 1 1021.42 355.58
  Q 1022.99 352.03 1020.69 349.84
  A 2.06 1.97 -13.4 0 0 1019.92 349.39
  L 1016.02 348.18
  L 1019.33 348.13
  A 0.44 0.44 0.0 0 0 1019.60 347.35
  C 1014.50 343.23 1007.71 339.82 1000.98 339.84
  Q 958.23 339.95 922.17 339.94
  A 7.55 7.52 31.4 0 0 918.75 340.76
  Q 910.35 345.03 900.71 347.66
  A 0.26 0.26 0.0 0 0 900.78 348.18
  L 925.49 348.17
  L 916.99 351.13
  Q 913.81 351.14 910.83 350.35
  A 7.28 7.01 -37.0 0 0 908.95 350.12
  Q 880.96 350.60 868.15 350.85
  C 863.00 350.95 859.72 352.12 855.01 354.01
  Q 843.61 358.61 836.20 364.71
  C 834.67 365.96 833.36 366.22 831.62 366.41
  Q 826.00 367.05 819.29 366.26
  Q 798.40 363.81 777.43 359.56
  L 766.23 356.40
  A 0.06 0.05 46.6 0 1 766.23 356.29
  Q 779.73 354.31 792.18 354.73
  A 1.82 1.76 26.6 0 0 793.32 354.37
  L 794.39 353.58
  A 1.52 1.38 -67.8 0 1 794.91 353.33
  L 807.94 350.32
  A 15.60 15.57 -50.2 0 1 812.09 349.94
  L 821.88 350.37
  A 0.90 0.90 0.0 0 0 822.23 348.63
  Q 821.09 348.21 819.24 348.10
  L 813.00 346.86
  A 0.51 0.50 16.3 0 1 812.62 346.18
  Q 813.80 343.08 810.95 340.39
  A 0.82 0.81 -22.6 0 0 810.43 340.18
  L 800.61 339.75
  A 0.34 0.34 0.0 0 0 800.51 340.41
  Q 804.75 341.51 807.70 343.63
  A 0.73 0.72 47.6 0 1 807.65 344.84
  Q 806.25 345.67 804.29 345.26
  C 785.97 341.49 768.97 339.78 749.13 339.92
  Q 740.17 339.98 697.37 339.92
  A 8.51 8.37 34.8 0 0 694.56 340.40
  Q 687.61 342.87 681.18 347.62
  A 0.28 0.28 0.0 0 0 681.35 348.13
  L 694.07 348.12
  L 689.87 350.79
  L 677.60 350.97
  L 675.22 352.52
  A 0.91 0.90 -48.8 0 1 674.35 352.58
  L 663.87 347.75
  Q 644.46 342.07 623.78 347.55
  A 0.26 0.25 -52.1 0 0 623.84 348.05
  L 638.07 348.17
  L 627.55 350.99
  Q 619.70 350.53 614.62 351.13
  Q 610.36 351.64 605.99 355.51
  Q 600.07 354.95 593.82 354.35
  C 583.34 353.35 573.39 353.64 562.84 352.36
  Q 548.00 350.55 541.43 350.39
  Q 527.95 350.06 521.63 349.86
  C 519.15 349.77 516.05 350.43 514.12 350.56
  Q 509.14 350.87 500.00 352.02
  Q 468.28 355.97 452.20 357.46
  A 0.33 0.33 0.0 0 1 452.01 356.84
  Q 458.81 353.27 466.13 351.41
  Q 472.50 349.78 479.06 347.96
  Q 505.08 343.37 531.30 340.34
  A 0.29 0.29 0.0 0 0 531.56 340.03
  L 531.56 340.01
  A 0.13 0.12 -2.4 0 0 531.43 339.90
  Q 435.87 339.98 327.32 339.93
  Q 307.73 339.92 299.72 340.78
  Q 284.99 342.36 272.44 345.22
  Q 261.88 347.62 253.20 353.97
  C 248.58 357.35 245.27 360.10 239.00 359.81
  Q 221.12 359.01 207.76 360.51
  C 202.05 361.15 196.90 362.32 190.17 363.79
  C 183.09 365.34 175.73 366.12 167.69 366.76
  A 0.40 0.40 0.0 0 1 167.36 366.10
  Q 168.19 365.15 169.55 364.37
  Q 188.40 353.49 201.39 345.90
  Q 204.96 343.81 207.07 340.72
  Q 207.96 339.34 209.65 338.33
  Q 214.98 336.37 213.04 332.97
  Q 213.72 330.07 214.42 326.49
  Q 215.34 321.79 213.19 317.56
  Q 213.53 312.66 209.48 309.27
  Q 194.07 296.34 174.71 290.48
  C 168.60 288.64 162.07 288.76 156.00 288.88
  Q 132.41 289.34 112.49 291.70
  Q 107.57 292.28 105.23 291.87
  Q 89.20 289.10 64.52 285.21
  Q 57.01 284.02 49.73 283.84
  A 0.53 0.52 -74.2 0 1 49.29 283.05
  C 49.80 282.19 50.83 281.58 51.84 281.36
  Q 75.82 276.22 98.76 265.48
  A 9.13 9.06 -62.5 0 1 100.99 264.77
  Q 101.31 264.72 103.26 264.33
  Q 110.43 262.89 132.18 260.19
  C 149.09 258.09 164.93 251.42 178.47 240.76
  Q 181.34 238.51 184.46 234.70
  C 188.01 230.39 190.53 227.32 192.10 222.51
  A 1.72 1.71 29.9 0 0 191.60 220.69
  Q 189.19 218.60 186.73 217.61
  Q 183.22 215.33 179.50 215.14
  Q 165.41 214.44 151.66 216.77
  A 0.13 0.13 0.0 0 1 151.59 216.52
  Q 159.16 213.45 172.17 208.23
  C 174.46 207.31 177.67 204.56 174.82 201.79
  Q 174.00 200.99 172.75 199.34
  A 5.11 5.05 -3.8 0 0 171.12 197.93
  Q 165.73 194.92 158.30 193.44
  Q 147.29 191.24 136.48 192.21
  A 0.70 0.70 0.0 0 1 135.77 191.75
  C 131.02 178.22 118.02 179.40 108.37 186.65
  A 2.02 2.00 -62.6 0 1 107.14 187.05
  Q 101.89 186.97 97.29 188.00
  Q 95.47 188.42 94.57 189.04
  C 93.61 189.71 92.17 189.20 90.73 189.66
  Q 83.85 191.87 78.48 195.74
  A 0.85 0.85 0.0 0 1 77.47 195.73
  Q 75.91 194.53 74.30 195.55
  A 1.74 1.74 0.0 0 1 73.05 195.78
  Q 58.79 193.00 44.94 197.84
  Q 42.81 198.58 39.01 198.00
  A 0.17 0.17 0.0 0 1 38.97 197.67
  C 46.07 194.74 52.12 191.78 57.08 186.08
  A 1.72 1.71 -62.2 0 1 58.81 185.54
  C 60.43 185.96 62.37 187.26 63.93 186.33
  Q 67.96 183.93 71.27 180.87
  L 80.12 180.90
  L 91.28 182.38
  A 1.54 1.51 -54.1 0 0 92.16 182.23
  Q 94.45 181.08 94.81 178.22
  A 1.33 1.31 -53.3 0 0 94.71 177.51
  L 93.49 174.62
  A 0.65 0.65 0.0 0 1 93.69 173.85
  L 95.25 172.69
  A 0.43 0.43 0.0 0 0 95.03 171.92
  Q 90.61 171.59 88.04 167.70
  A 0.93 0.93 0.0 0 1 88.48 166.33
  C 98.47 162.47 112.31 150.96 107.48 138.79
  C 105.09 132.76 97.13 129.06 90.87 127.42
  Q 90.19 127.24 88.66 125.94
  A 0.98 0.97 57.0 0 0 87.73 125.74
  C 85.03 126.53 81.71 125.06 79.12 124.96
  Q 77.23 124.89 69.72 123.79
  A 0.39 0.39 0.0 0 1 69.65 123.04
  Q 71.00 122.55 72.50 122.31
  Q 81.41 120.94 87.76 119.53
  Q 89.44 119.16 90.06 117.78
  Q 90.72 116.94 90.17 115.93
  Q 90.11 114.46 88.29 113.98
  Q 82.55 112.47 78.02 111.42
  A 0.28 0.28 0.0 0 1 78.09 110.86
  L 91.67 111.11
  A 2.79 2.56 -47.5 0 0 92.13 111.07
  L 97.07 110.15
  A 2.17 2.06 42.7 0 1 97.86 110.14
  L 106.63 111.57
  C 109.61 112.33 116.66 114.15 119.28 112.30
  Q 122.21 110.24 121.25 105.44
  Q 120.45 98.37 114.89 93.61
  Q 109.31 88.83 102.25 86.11
  Q 89.04 81.02 74.87 79.99
  A 2.12 2.11 -24.9 0 1 73.85 79.62
  C 66.87 74.60 59.24 72.14 51.17 69.75
  A 0.14 0.14 0.0 0 1 51.20 69.47
  L 79.41 66.95
  Q 86.34 66.90 93.09 65.69
  Q 96.33 65.11 99.01 63.29
  Q 100.43 62.32 100.32 61.23
  C 101.59 60.03 99.99 57.60 99.29 56.46
  A 0.27 0.27 0.0 0 1 99.53 56.05
  Q 102.47 56.18 115.00 56.85
  Q 116.41 56.93 117.64 56.44
  Q 121.45 57.22 123.93 60.34
  C 126.40 63.46 129.78 68.51 133.08 71.21
  C 145.30 81.23 163.46 80.41 177.29 73.93
  Q 184.26 71.52 187.83 66.55
  Q 189.57 64.12 187.80 60.53
  A 0.40 0.39 78.4 0 1 188.17 59.96
  Q 191.29 60.12 192.37 58.70
  A 1.47 1.46 21.8 0 1 193.69 58.14
  C 197.79 58.61 201.60 59.32 205.49 58.62
  Q 216.77 60.75 224.23 55.66
  Q 224.67 52.22 222.85 50.89
  Q 219.52 48.46 215.88 47.12
  Q 208.40 44.38 200.98 42.60
  A 0.41 0.41 0.0 0 1 200.85 41.86
  Q 202.07 41.05 203.74 41.14
  Q 211.48 41.55 219.37 42.41
  Q 229.49 43.51 241.06 48.50
  Q 245.81 52.38 249.55 56.89
  C 251.90 59.72 254.27 62.28 257.01 63.53
  Q 267.90 68.49 283.28 71.92
  L 306.08 76.05
  A 0.37 0.18 -19.3 0 0 306.17 76.06
  L 315.65 75.77
  A 0.44 0.44 0.0 0 1 315.97 76.53
  C 312.20 80.15 317.17 82.99 320.22 83.33
  A 0.59 0.59 0.0 0 1 320.42 84.45
  Q 314.19 87.60 305.90 89.42
  C 299.03 90.94 294.16 92.19 288.49 91.99
  Q 277.13 91.59 274.07 91.62
  Q 259.71 90.89 249.72 100.30
  L 244.26 107.18
  A 0.77 0.77 0.0 0 1 243.47 107.45
  Q 241.77 107.03 240.31 106.43
  Q 228.26 101.55 214.85 99.90
  Q 210.01 99.12 204.88 99.91
  Q 199.85 100.67 198.46 105.07
  A 2.15 2.15 0.0 0 0 198.38 106.07
  C 199.03 110.15 203.24 112.77 206.60 114.43
  Q 213.99 118.09 218.05 119.22
  Q 222.73 120.53 227.02 121.76
  A 1.37 1.37 0.0 0 1 227.90 123.62
  Q 226.57 126.68 227.96 130.46
  Q 229.59 135.05 232.89 138.92
  A 0.22 0.22 0.0 0 1 232.69 139.28
  Q 230.55 138.94 225.19 137.40
  Q 205.88 131.82 184.75 134.07
  Q 183.20 134.24 179.81 135.05
  Q 167.79 136.41 159.48 142.72
  C 154.86 146.24 154.51 152.96 158.09 157.52
  Q 160.33 160.35 163.84 162.36
  A 0.95 0.95 0.0 0 1 164.05 163.84
  C 160.62 167.44 154.75 168.62 151.42 170.01
  A 1.02 1.02 0.0 0 0 151.45 171.90
  L 166.19 177.54
  A 7.73 7.72 -34.6 0 0 169.03 178.06
  C 182.47 177.96 192.90 180.05 201.55 190.92
  Q 202.75 192.43 203.80 194.82
  A 0.60 0.60 0.0 0 0 204.48 195.16
  Q 206.60 194.65 208.70 194.98
  L 205.27 196.12
  A 0.58 0.58 0.0 0 0 204.89 196.80
  L 205.73 200.24
  A 0.61 0.60 75.6 0 0 206.46 200.68
  Q 210.34 199.68 211.34 199.32
  Q 214.07 198.35 214.75 201.12
  Q 217.21 211.09 226.97 211.20
  C 239.83 211.33 252.21 207.33 265.16 200.89
  Q 276.08 195.46 283.36 189.01
  Q 283.61 187.70 285.09 188.28
  Q 285.36 189.00 286.87 187.90
  Q 294.84 182.12 302.73 175.65
  L 308.52 170.91
  A 0.65 0.64 32.9 0 0 308.28 169.79
  Q 307.61 169.60 307.46 168.86
  A 1.36 1.34 13.8 0 0 306.99 168.10
  Q 304.25 165.82 301.78 162.97
  Q 300.93 161.99 298.10 161.66
  A 0.26 0.26 0.0 0 1 297.95 161.21
  Q 298.37 160.80 301.54 159.76
  Q 307.44 157.81 312.49 153.28
  Q 313.52 152.35 315.16 152.39
  A 0.36 0.35 79.1 0 0 315.49 151.89
  Q 314.20 148.74 311.53 146.45
  Q 310.11 142.60 306.02 140.46
  Q 301.44 138.06 299.11 136.69
  A 2.44 2.43 37.8 0 1 298.62 132.87
  L 300.59 130.90
  A 0.36 0.35 -63.6 0 0 300.39 130.30
  L 295.04 129.54
  Q 292.70 129.76 290.59 130.29
  Q 288.53 130.81 286.86 130.72
  Q 284.92 130.62 283.36 131.58
  A 2.06 2.03 -62.9 0 1 282.45 131.88
  Q 278.03 132.29 270.69 134.96
  A 0.22 0.21 -80.7 0 1 270.45 134.62
  Q 273.78 130.38 275.55 129.05
  Q 288.85 119.02 304.76 114.41
  Q 307.71 113.88 310.65 113.52
  C 318.71 112.52 324.68 114.11 331.48 117.33
  A 4.09 3.98 59.3 0 0 332.86 117.70
  Q 337.17 118.05 349.26 117.50
  C 365.35 116.76 377.53 111.04 389.73 100.24
  Q 393.28 97.10 396.48 92.07
  Q 401.42 84.30 402.54 82.82
  Q 406.48 77.68 406.66 74.93
  C 407.37 63.90 387.77 58.51 379.44 56.65
  C 374.14 55.46 368.23 55.67 363.50 55.91
  Q 357.46 56.23 351.41 55.54
  L 363.74 51.02
  A 2.80 2.60 30.5 0 1 364.47 50.86
  L 376.23 50.10
  A 1.99 1.81 -56.4 0 0 376.91 49.93
  Q 385.69 46.06 394.93 46.89
  Q 398.98 47.24 402.99 46.80
  C 410.90 45.94 418.60 45.36 428.66 44.53
  Q 434.61 44.03 441.87 42.46
  C 450.53 40.59 455.53 40.13 462.41 37.75
  Q 466.07 36.48 471.17 36.50
  A 3.12 2.98 -51.5 0 0 471.98 36.39
  L 490.44 31.12
  Q 497.67 28.35 504.72 23.95
  Q 505.38 23.53 508.30 20.05
  A 1.33 1.30 65.9 0 0 508.60 19.24
  Q 508.64 17.30 509.80 14.89
  A 0.55 0.54 -65.4 0 1 510.51 14.62
  Q 516.92 17.38 522.74 19.74
  Q 523.78 20.16 524.55 19.96
  Q 524.86 20.45 525.33 20.65
  Q 541.95 27.57 559.50 30.45
  Q 560.34 30.59 565.00 30.84
  Q 567.28 30.97 570.50 31.52
  Q 577.27 32.70 589.99 31.02
  Q 591.90 31.08 593.45 29.22
  Q 594.80 27.61 598.47 27.18
  Q 599.69 27.04 604.93 28.01
  C 610.83 29.11 616.42 29.35 622.12 30.27
  C 627.01 31.05 631.71 31.13 636.86 30.65
  Q 656.50 28.81 664.21 27.87
  Q 673.74 26.70 682.24 22.48
  A 1.25 1.24 42.5 0 1 683.22 22.44
  Q 687.74 24.14 689.43 24.64
  Q 690.72 25.03 690.77 24.79
  Q 690.85 24.40 691.43 23.84
  A 0.37 0.37 0.0 0 1 692.06 24.14
  Q 692.03 24.45 691.74 24.71
  A 0.33 0.33 0.0 0 0 691.79 25.24
  Q 694.32 26.65 696.64 26.21
  Q 701.27 28.48 706.45 28.89
  Q 713.63 30.88 720.93 30.63
  Q 721.14 30.63 725.94 29.80
  Q 729.23 29.24 732.08 30.65
  Q 738.63 33.46 743.49 33.82
  Q 754.63 34.66 771.61 34.34
  C 779.67 34.19 783.81 34.40 789.58 31.06
  Q 791.91 30.08 793.08 27.43
  A 0.77 0.76 -74.6 0 1 793.86 26.98
  Q 805.02 28.26 811.87 27.56
  Q 820.22 26.72 822.71 27.50
  A 0.97 0.97 0.0 0 0 823.60 27.33
  C 828.46 23.50 833.63 24.26 839.51 25.29
  Q 856.00 28.19 872.13 30.97
  L 883.44 33.57
  A 6.72 6.53 -41.0 0 0 885.61 33.69
  L 907.73 31.25
  A 10.29 10.24 49.7 0 1 911.61 31.58
  C 918.34 33.48 923.45 34.40 930.45 34.42
  Q 957.19 34.46 965.06 34.36
  Q 969.12 34.31 970.80 30.92
  Q 973.13 29.50 976.13 29.93
  A 0.42 0.42 0.0 0 0 976.41 29.16
  Q 971.87 26.37 968.99 22.96
  C 967.71 20.52 965.34 19.73 963.48 17.92
  Q 952.10 13.82 940.37 12.17
  A 0.26 0.25 42.0 0 1 940.34 11.67
  Q 950.15 9.25 959.46 8.66
  Q 968.85 8.08 980.31 11.36
  A 6.87 6.80 68.5 0 1 981.92 12.07
  C 984.31 13.53 985.37 14.32 987.73 15.16
  C 1005.71 21.55 1022.89 28.05 1041.24 30.92
  Z
  M 1841.38 81.71
  L 1834.65 84.33
  A 0.13 0.13 0.0 0 0 1834.58 84.50
  L 1834.60 84.55
  A 3.57 1.38 -21.3 0 0 1838.42 84.54
  L 1838.74 84.41
  A 3.57 1.38 -21.3 0 0 1841.57 81.83
  L 1841.55 81.79
  A 0.13 0.13 0.0 0 0 1841.38 81.71
  Z
  M 1829.85 86.40
  L 1833.75 85.70
  A 0.26 0.26 0.0 0 0 1833.84 85.23
  Q 1833.33 84.92 1832.73 85.14
  Q 1831.31 85.68 1829.84 86.36
  A 0.02 0.02 0.0 0 0 1829.85 86.40
  Z
  M 1850.88 105.12
  Q 1846.94 104.11 1843.75 105.79
  A 1.45 1.41 36.2 0 1 1842.77 105.93
  Q 1835.81 104.51 1828.94 107.54
  A 0.29 0.29 0.0 0 0 1828.95 108.07
  Q 1831.81 109.25 1833.27 108.83
  Q 1841.87 106.34 1850.88 105.12
  Z
  M 1816.61 115.68
  Q 1818.29 115.40 1819.08 114.01
  A 0.59 0.59 0.0 0 0 1818.75 113.16
  Q 1818.58 113.10 1818.14 113.23
  L 1818.52 111.89
  A 0.37 0.37 0.0 0 0 1818.05 111.44
  Q 1816.62 111.89 1815.07 111.64
  A 0.88 0.87 -71.9 0 0 1814.14 112.12
  Q 1811.59 117.24 1810.58 122.40
  A 0.24 0.23 70.6 0 0 1810.99 122.60
  L 1816.61 115.68
  Z
  M 1772.58 122.77
  L 1779.13 125.56
  A 0.11 0.11 0.0 0 0 1779.27 125.50
  L 1779.29 125.47
  A 3.50 1.06 23.1 0 0 1776.48 123.12
  L 1776.17 122.99
  A 3.50 1.06 23.1 0 0 1772.53 122.59
  L 1772.52 122.62
  A 0.11 0.11 0.0 0 0 1772.58 122.77
  Z
  M 1812.11 124.18
  Q 1811.98 123.69 1811.96 123.66
  A 0.41 0.22 31.4 0 0 1811.33 123.63
  Q 1811.40 123.94 1811.78 124.36
  A 0.19 0.19 0.0 0 0 1812.11 124.18
  Z
  M 1783.24 130.94
  C 1784.68 128.55 1782.52 127.32 1781.03 126.27
  A 0.42 0.42 0.0 0 0 1780.38 126.67
  Q 1780.78 129.72 1782.36 131.08
  A 0.59 0.58 -53.9 0 0 1783.24 130.94
  Z
  M 1887.6151 158.2176
  A 1.24 0.26 -174.8 0 0 1888.8264 158.5889
  A 1.24 0.26 -174.8 0 0 1890.0849 158.4424
  A 1.24 0.26 -174.8 0 0 1888.8736 158.0711
  A 1.24 0.26 -174.8 0 0 1887.6151 158.2176
  Z
  M 1635.79 189.60
  L 1638.18 190.25
  A 0.23 0.22 45.7 0 1 1638.18 190.69
  C 1634.00 191.67 1628.80 192.53 1627.89 193.81
  A 1.51 1.34 21.7 0 0 1628.97 195.96
  Q 1632.25 196.59 1635.43 196.89
  A 3.12 3.10 -24.0 0 1 1637.00 197.49
  C 1639.69 199.50 1641.79 201.62 1644.97 202.82
  Q 1649.15 204.39 1656.92 206.39
  Q 1661.89 207.68 1665.60 204.97
  A 1.18 1.14 79.3 0 0 1666.04 204.30
  Q 1666.92 200.60 1664.82 197.98
  A 0.10 0.10 0.0 0 1 1664.96 197.84
  L 1672.28 203.28
  A 0.09 0.09 0.0 0 0 1672.41 203.15
  L 1665.52 193.90
  A 0.14 0.14 0.0 0 1 1665.71 193.69
  Q 1671.51 197.33 1681.91 203.27
  Q 1684.86 204.96 1687.03 207.33
  A 3.60 3.58 -74.2 0 1 1687.81 208.73
  C 1690.61 218.57 1699.15 224.98 1707.72 229.48
  Q 1708.63 229.96 1711.91 231.97
  Q 1716.01 234.48 1721.42 235.79
  A 1.73 1.71 -49.8 0 0 1722.53 235.69
  Q 1726.04 234.15 1727.98 231.23
  A 0.86 0.85 20.9 0 1 1728.82 230.86
  L 1732.86 231.46
  L 1744.31 234.05
  A 0.16 0.16 0.0 0 0 1744.42 233.75
  C 1739.29 231.26 1730.49 225.95 1729.22 219.76
  A 0.81 0.81 0.0 0 0 1728.54 219.11
  L 1716.32 217.26
  L 1713.32 214.62
  A 0.51 0.51 0.0 0 1 1713.79 213.74
  L 1721.60 215.82
  A 1.51 1.50 -74.9 0 0 1723.45 214.75
  L 1723.54 214.43
  A 1.90 1.90 0.0 0 0 1722.19 212.10
  L 1713.79 209.85
  A 0.98 0.98 0.0 0 1 1713.72 207.97
  Q 1714.56 207.67 1716.24 207.84
  A 0.36 0.36 0.0 0 0 1716.53 207.22
  L 1705.10 195.79
  A 0.42 0.42 0.0 0 1 1705.51 195.08
  L 1714.06 197.37
  A 1.07 1.06 8.8 0 0 1715.40 196.39
  L 1715.46 194.93
  A 1.37 1.36 9.0 0 0 1714.45 193.55
  L 1705.51 191.16
  A 0.89 0.89 0.0 0 1 1705.53 189.44
  L 1716.67 186.72
  A 0.28 0.28 0.0 0 0 1716.74 186.20
  Q 1714.67 185.06 1712.93 185.42
  C 1704.50 187.19 1695.01 187.93 1685.63 187.89
  Q 1666.22 187.81 1644.82 186.54
  A 0.27 0.27 0.0 0 1 1644.78 186.00
  Q 1652.17 184.51 1659.31 184.12
  C 1666.36 183.73 1670.80 182.98 1677.51 182.37
  Q 1677.64 182.36 1677.69 182.17
  A 0.06 0.05 7.2 0 0 1677.63 182.10
  Q 1674.05 182.27 1671.60 181.17
  Q 1657.33 179.13 1643.19 177.13
  Q 1640.64 176.76 1638.53 177.11
  A 1.98 1.98 0.0 0 0 1637.31 177.84
  C 1633.30 183.02 1630.80 186.34 1625.26 189.30
  A 0.24 0.24 0.0 0 0 1625.35 189.75
  Q 1630.74 190.38 1635.79 189.60
  Z
  M 1792.69 182.09
  L 1782.53 177.99
  A 1.32 1.31 35.2 0 0 1781.16 178.22
  Q 1779.08 180.07 1777.18 180.79
  A 3.51 3.49 10.0 0 0 1775.80 181.75
  Q 1773.96 183.87 1770.27 184.43
  A 2.37 2.36 -83.1 0 0 1768.43 185.88
  L 1767.73 187.62
  A 0.54 0.53 89.1 0 0 1768.44 188.31
  L 1774.25 185.79
  A 1.75 1.67 30.4 0 1 1774.93 185.63
  Q 1782.37 185.44 1789.26 182.57
  Q 1790.26 182.16 1790.74 182.36
  Q 1792.27 183.00 1792.76 182.29
  A 0.14 0.13 26.5 0 0 1792.69 182.09
  Z
  M 1896.81 179.58
  Q 1896.75 179.55 1896.19 179.72
  A 0.24 0.24 0.0 0 0 1896.21 180.19
  Q 1896.73 180.31 1896.88 180.21
  A 0.36 0.35 -51.6 0 0 1896.81 179.58
  Z
  M 79.3966 188.0453
  A 4.55 0.30 -2.2 0 0 74.8385 187.9202
  A 4.55 0.30 -2.2 0 0 70.3034 188.3947
  A 4.55 0.30 -2.2 0 0 74.8615 188.5198
  A 4.55 0.30 -2.2 0 0 79.3966 188.0453
  Z
  M 1592.33 300.14
  Q 1609.18 305.02 1614.04 305.83
  Q 1619.40 306.72 1628.37 304.60
  A 3.87 3.72 -65.6 0 0 1629.45 304.17
  C 1632.38 302.49 1634.70 300.92 1637.93 299.97
  Q 1640.91 299.09 1646.56 297.29
  A 13.18 13.07 -55.8 0 1 1649.42 296.73
  Q 1649.43 296.73 1655.75 296.54
  Q 1664.93 296.26 1671.67 290.90
  Q 1675.92 287.51 1676.01 284.38
  A 0.61 0.61 0.0 0 1 1676.62 283.79
  L 1679.38 283.79
  A 0.54 0.54 0.0 0 0 1679.61 282.76
  Q 1678.05 282.02 1677.25 280.99
  A 0.21 0.21 0.0 0 1 1677.48 280.67
  Q 1682.40 282.31 1687.85 282.05
  A 2.69 2.68 -74.5 0 0 1689.94 280.86
  C 1694.44 274.17 1684.52 271.83 1680.24 272.11
  Q 1675.35 272.42 1673.47 271.89
  A 0.41 0.40 24.1 0 1 1673.23 271.28
  C 1675.36 267.95 1672.40 264.43 1669.08 263.45
  A 0.03 0.03 0.0 0 1 1669.06 263.41
  L 1669.12 263.16
  A 0.23 0.23 0.0 0 1 1669.39 263.00
  C 1679.31 265.43 1687.22 263.85 1696.80 261.39
  A 0.81 0.81 0.0 0 0 1697.18 260.04
  Q 1688.06 250.74 1677.15 244.36
  Q 1671.36 240.97 1665.24 240.91
  Q 1645.16 240.72 1623.00 242.36
  Q 1612.02 243.16 1599.99 245.74
  Q 1595.46 246.71 1592.55 247.73
  A 3.54 3.51 11.6 0 0 1591.11 248.67
  Q 1589.94 249.91 1588.99 250.27
  Q 1582.49 252.70 1570.99 257.12
  A 0.34 0.34 0.0 0 0 1570.94 257.73
  L 1573.37 259.13
  A 0.30 0.30 0.0 0 1 1573.22 259.69
  L 1567.25 259.69
  A 2.23 2.09 31.4 0 0 1566.38 259.87
  Q 1562.21 261.72 1558.90 264.92
  A 0.58 0.58 0.0 0 1 1557.93 264.35
  L 1559.17 259.71
  A 0.49 0.48 8.4 0 0 1558.71 259.10
  Q 1542.79 258.69 1533.73 259.63
  Q 1531.05 259.91 1525.76 261.77
  A 1.83 1.80 5.2 0 0 1524.82 262.54
  C 1522.58 266.28 1520.98 271.93 1524.77 275.38
  A 2.06 2.02 71.3 0 0 1525.74 275.87
  Q 1535.75 277.89 1545.30 281.90
  A 0.11 0.11 0.0 0 1 1545.29 282.10
  Q 1532.12 286.95 1517.99 286.01
  Q 1512.90 285.67 1507.90 285.01
  A 1.17 0.84 -20.6 0 1 1507.64 284.94
  L 1503.85 283.37
  A 4.63 4.56 56.0 0 0 1502.17 283.03
  C 1500.01 283.01 1496.71 282.76 1493.70 283.55
  C 1490.90 284.29 1487.52 283.70 1484.26 285.40
  C 1482.88 286.12 1483.07 287.77 1480.77 287.47
  Q 1478.03 287.12 1476.26 290.12
  A 0.25 0.25 0.0 0 0 1476.55 290.49
  Q 1484.88 288.00 1492.18 286.70
  Q 1498.49 285.58 1501.23 286.17
  Q 1509.01 287.85 1524.88 294.57
  A 3.12 3.02 58.9 0 0 1525.75 294.80
  Q 1531.98 295.58 1533.50 295.45
  C 1566.31 292.45 1598.05 290.98 1630.65 293.73
  A 0.20 0.20 0.0 0 1 1630.68 294.12
  C 1627.56 294.94 1624.45 295.72 1620.74 296.13
  Q 1600.36 298.43 1592.35 299.73
  A 0.21 0.21 0.0 0 0 1592.33 300.14
  Z
  M 1851.85 244.87
  Q 1850.45 244.62 1850.26 244.66
  A 0.54 0.54 0.0 0 0 1850.14 245.67
  Q 1850.90 246.05 1851.95 245.35
  A 0.27 0.26 33.4 0 0 1851.85 244.87
  Z
  M 1529.30 280.45
  Q 1529.06 280.15 1528.80 280.20
  A 0.27 0.26 -33.3 0 0 1528.70 280.67
  Q 1528.79 280.74 1528.91 280.83
  A 0.27 0.27 0.0 0 0 1529.30 280.45
  Z
  M 1806.10 332.67
  C 1808.37 331.34 1813.17 328.55 1813.34 326.23
  A 0.30 0.30 0.0 0 0 1812.84 325.98
  Q 1810.29 328.18 1807.65 328.98
  A 1.52 1.50 2.4 0 0 1806.69 329.85
  L 1805.70 332.32
  A 0.28 0.28 0.0 0 0 1806.10 332.67
  Z
  M 1025.61 340.62
  L 1034.68 341.27
  L 1034.70 341.08
  A 4.44 0.79 4.1 0 0 1030.32 339.98
  L 1030.11 339.96
  A 4.44 0.79 4.1 0 0 1025.62 340.43
  L 1025.61 340.62
  Z
  M 888.1799 347.8956
  A 3.50 0.27 -0.4 0 0 884.6781 347.6500
  A 3.50 0.27 -0.4 0 0 881.1801 347.9444
  A 3.50 0.27 -0.4 0 0 884.6819 348.1900
  A 3.50 0.27 -0.4 0 0 888.1799 347.8956
  Z
  M 1323.79 351.11
  Q 1323.89 351.09 1324.10 350.88
  A 0.37 0.32 -58.4 0 0 1324.00 350.30
  Q 1323.77 350.24 1323.54 350.56
  A 0.36 0.30 -74.1 0 0 1323.79 351.11
  Z"
/>
<path d="
  M 674.99 20.70
  Q 675.84 19.81 676.68 19.84
  A 0.49 0.49 0.0 0 1 677.14 20.47
  Q 677.05 20.75 675.20 21.09
  A 0.23 0.23 0.0 0 1 674.99 20.70
  Z"
/>
<path d="
  M 780.64 30.75
  Q 780.10 30.81 779.49 30.86
  Q 766.61 32.05 753.63 30.66
  Q 766.78 29.03 779.90 30.22
  Q 780.50 30.28 780.64 30.75
  Z"
/>
<path d="
  M 213.94 55.10
  L 210.21 54.89
  L 203.02 52.32
  A 3.82 3.82 0.0 0 1 201.24 51.00
  L 199.43 48.56
  A 1.09 1.09 0.0 0 1 200.59 46.85
  Q 209.24 49.19 216.79 52.17
  Q 218.03 52.66 219.03 53.62
  A 0.29 0.28 -28.5 0 1 218.88 54.10
  L 213.94 55.10
  Z"
/>
<path d="
  M 268.25 56.95
  Q 281.52 61.33 294.21 69.44
  A 0.24 0.24 0.0 0 1 294.09 69.88
  Q 292.96 69.96 291.61 69.68
  Q 284.14 68.11 276.45 66.12
  Q 265.96 62.87 260.30 60.48
  C 255.74 58.55 252.14 53.18 248.80 49.52
  A 0.17 0.17 0.0 0 1 248.99 49.24
  L 268.25 56.95
  Z"
/>
<path d="
  M 319.54 78.16
  L 325.63 76.05
  A 0.06 0.05 1.8 0 1 325.70 76.12
  L 324.27 79.66
  A 0.65 0.65 0.0 0 1 323.71 80.07
  Q 321.71 80.18 319.47 78.93
  A 0.42 0.42 0.0 0 1 319.54 78.16
  Z"
/>
<path d="
  M 70.13 84.28
  Q 70.55 84.34 70.56 84.35
  A 0.15 0.15 0.0 0 1 70.54 84.64
  Q 70.14 84.73 70.00 84.49
  A 0.14 0.14 0.0 0 1 70.13 84.28
  Z"
/>
<path d="
  M 326.69 85.75
  Q 326.47 85.83 326.13 85.69
  A 0.19 0.19 0.0 0 1 326.16 85.33
  Q 326.23 85.31 326.63 85.35
  A 0.21 0.21 0.0 0 1 326.69 85.75
  Z"
/>
<path d="
  M 1775.03 145.71
  A 0.25 0.25 0.0 0 1 1774.68 145.99
  Q 1774.26 145.82 1774.00 145.17
  A 0.31 0.31 0.0 0 1 1774.40 144.76
  Q 1774.88 144.95 1775.03 145.71
  Z"
/>
<path d="
  M 242.18 156.09
  C 247.83 157.07 252.11 157.37 256.46 161.50
  C 257.96 162.93 261.50 165.81 262.45 168.33
  Q 262.16 168.47 261.80 168.50
  Q 252.34 169.57 243.35 173.85
  Q 242.36 174.32 241.98 174.80
  Q 241.21 174.78 240.52 175.11
  Q 235.17 177.67 231.14 182.53
  A 1.03 1.02 53.7 0 1 229.40 182.26
  C 226.72 175.72 216.05 172.11 209.22 171.16
  Q 205.75 170.67 202.09 170.19
  A 0.29 0.29 0.0 0 1 202.04 169.62
  Q 203.84 169.04 204.77 168.59
  C 206.12 167.93 207.74 167.89 208.40 167.03
  Q 208.85 166.43 209.82 166.40
  Q 213.68 166.30 222.12 163.09
  Q 227.07 161.21 228.75 157.29
  A 0.82 0.82 0.0 0 1 229.45 156.80
  L 242.18 156.09
  Z"
/>
<path d="
  M 1788.85 158.29
  Q 1788.82 157.98 1788.83 157.96
  A 0.17 0.17 0.0 0 1 1789.16 157.96
  Q 1789.25 158.42 1788.96 158.39
  A 0.11 0.11 0.0 0 1 1788.85 158.29
  Z"
/>
<circle cx="1782.96" cy="165.37" r="0.25"/>
<path d="
  M 228.37 205.48
  C 222.13 207.76 220.03 200.57 220.81 195.97
  C 223.20 199.30 223.31 203.05 228.37 205.48
  Z"
/>
<path d="
  M 160.96 198.87
  Q 160.94 199.08 157.59 199.04
  C 157.13 199.03 156.92 198.89 156.97 198.42
  C 157.03 197.95 157.26 197.86 157.71 197.95
  Q 160.99 198.66 160.96 198.87
  Z"
/>
<path d="
  M 1599.10 265.62
  L 1595.65 264.38
  Q 1605.33 262.21 1613.24 256.47
  Q 1614.30 255.69 1616.39 255.49
  A 2.66 2.34 -39.2 0 1 1616.94 255.51
  Q 1627.79 257.05 1637.69 255.39
  C 1642.97 254.50 1647.78 252.54 1652.34 251.10
  A 1.48 1.48 0.0 0 1 1654.26 252.59
  Q 1654.25 252.87 1653.71 254.00
  Q 1649.29 263.27 1640.65 269.68
  A 0.81 0.81 0.0 0 1 1639.52 269.52
  Q 1637.92 267.44 1634.98 267.65
  C 1627.75 268.19 1620.84 270.55 1614.29 273.07
  A 0.32 0.32 0.0 0 1 1613.86 272.71
  Q 1615.03 267.10 1609.94 265.36
  Q 1603.90 263.28 1599.10 265.62
  Z"
/>
<path d="
  M 1822.48 257.79
  Q 1822.61 257.59 1822.78 257.50
  Q 1823.22 257.28 1823.40 257.69
  Q 1823.55 258.05 1823.52 258.80
  A 0.32 0.32 0.0 0 1 1822.99 259.02
  Q 1822.77 258.82 1822.49 258.21
  Q 1822.37 257.96 1822.48 257.79
  Z"
/>
<ellipse cx="0.00" cy="0.00" transform="translate(1829.83,278.51) rotate(-141.2)" rx="0.90" ry="0.52"/>
<circle cx="1796.34" cy="309.51" r="0.30"/>
<path d="
  M 817.77 348.29
  C 816.12 350.43 812.52 348.96 810.29 348.52
  L 817.77 348.29
  Z"
/>
<path d="
  M 1003.41 349.49
  A 0.01 0.01 0.0 0 1 1003.40 349.47
  L 1003.43 349.43
  A 3.04 1.18 26.8 0 1 1006.67 349.75
  L 1006.87 349.85
  A 3.04 1.18 26.8 0 1 1009.05 352.27
  L 1009.03 352.31
  A 0.01 0.01 0.0 0 1 1009.01 352.32
  L 1003.41 349.49
  Z"
/>
<path d="
  M 1015.93 357.21
  Q 1015.63 357.11 1015.49 356.96
  A 2.21 0.66 25.7 0 1 1015.93 357.21
  Z"
/>
<path d="
  M 1117.84 361.15
  A 0.06 0.06 0.0 0 1 1117.80 361.07
  L 1117.85 360.89
  A 1.33 0.81 15.6 0 1 1119.35 360.47
  L 1121.80 361.15
  A 1.33 0.81 15.6 0 1 1122.86 362.29
  L 1122.81 362.47
  A 0.06 0.06 0.0 0 1 1122.73 362.51
  L 1117.84 361.15
  Z"
/>
<path d="
  M 1452.05 364.82
  Q 1451.55 365.01 1450.88 364.86
  A 0.21 0.21 0.0 0 1 1450.87 364.46
  Q 1450.93 364.44 1452.00 364.49
  A 0.17 0.17 0.0 0 1 1452.05 364.82
  Z"
/>
</g>
<g fill="#a855f7">
<path d="
  M 1731.54 42.82
  Q 1729.21 43.41 1728.54 41.90
  Q 1727.60 39.75 1728.00 36.71
  C 1729.13 28.20 1739.07 23.40 1746.15 21.05
  A 1.32 1.27 -25.5 0 0 1746.87 19.13
  Q 1746.27 18.22 1744.74 18.33
  C 1741.35 18.56 1738.54 19.10 1734.73 19.05
  C 1732.28 19.01 1730.17 19.71 1727.44 19.98
  Q 1693.77 23.39 1691.23 23.65
  A 3.66 3.65 -76.3 0 0 1688.51 25.31
  L 1685.68 29.68
  A 3.32 2.84 -8.1 0 1 1685.09 30.35
  Q 1681.75 33.16 1675.96 38.45
  Q 1672.32 41.78 1665.33 43.63
  C 1645.36 48.92 1623.49 45.52 1604.95 36.76
  C 1594.89 32.01 1586.13 24.43 1575.45 21.24
  A 4.77 4.75 38.1 0 0 1571.69 21.69
  C 1563.31 26.55 1556.10 30.97 1547.85 33.61
  Q 1545.84 34.25 1538.14 34.24
  Q 1299.28 34.02 1104.51 34.25
  Q 1091.82 34.26 1076.01 32.68
  C 1068.95 31.98 1061.09 33.84 1054.30 33.37
  Q 1047.66 32.90 1041.24 30.92
  Q 1288.93 30.92 1536.49 30.89
  Q 1542.37 30.89 1545.91 29.98
  Q 1550.81 28.71 1554.73 26.44
  Q 1565.53 20.19 1569.35 18.14
  Q 1571.98 16.73 1574.88 16.07
  A 3.64 3.57 46.7 0 1 1576.69 16.14
  Q 1593.38 21.31 1609.93 33.00
  Q 1616.50 37.63 1625.45 38.83
  C 1630.20 39.46 1634.39 40.38 1637.69 41.47
  C 1643.34 43.35 1648.78 43.19 1654.21 41.87
  Q 1657.27 41.12 1668.57 37.86
  A 5.30 5.12 -66.5 0 0 1669.44 37.50
  Q 1679.92 31.78 1685.41 20.96
  C 1686.26 19.29 1687.86 18.94 1689.78 18.93
  Q 1715.95 18.88 1716.39 18.90
  C 1722.52 19.19 1728.78 17.24 1734.55 15.22
  A 4.81 4.73 -54.6 0 1 1736.07 14.95
  Q 1741.94 14.88 1759.50 14.93
  Q 1759.86 14.93 1760.03 15.17
  A 1.11 1.10 51.8 0 1 1759.86 16.66
  C 1754.61 21.21 1749.16 24.89 1742.95 27.95
  C 1736.39 31.18 1729.28 33.51 1731.54 42.82
  Z"
/>
<path d="
  M 706.45 28.89
  Q 701.27 28.48 696.64 26.21
  Q 701.43 26.53 706.45 28.89
  Z"
/>
<path d="
  M 753.63 30.66
  Q 766.61 32.05 779.49 30.86
  Q 780.10 30.81 780.64 30.75
  L 789.58 31.06
  C 783.81 34.40 779.67 34.19 771.61 34.34
  Q 754.63 34.66 743.49 33.82
  Q 738.63 33.46 732.08 30.65
  L 753.63 30.66
  Z"
/>
<path d="
  M 970.80 30.92
  Q 969.12 34.31 965.06 34.36
  Q 957.19 34.46 930.45 34.42
  C 923.45 34.40 918.34 33.48 911.61 31.58
  A 10.29 10.24 49.7 0 0 907.73 31.25
  L 885.61 33.69
  A 6.72 6.53 -41.0 0 1 883.44 33.57
  L 872.13 30.97
  L 970.80 30.92
  Z"
/>
<path d="
  M 490.44 31.12
  L 471.98 36.39
  A 3.12 2.98 -51.5 0 1 471.17 36.50
  Q 466.07 36.48 462.41 37.75
  C 455.53 40.13 450.53 40.59 441.87 42.46
  Q 434.61 44.03 428.66 44.53
  C 418.60 45.36 410.90 45.94 402.99 46.80
  Q 398.98 47.24 394.93 46.89
  Q 401.87 43.31 404.53 43.09
  Q 426.83 41.26 437.92 38.89
  Q 458.16 34.56 473.29 32.31
  Q 480.32 31.26 490.44 31.12
  Z"
/>
<path d="
  M 1756.97 56.01
  L 1764.00 58.25
  A 0.62 0.61 -48.7 0 1 1764.07 59.39
  C 1761.01 60.85 1758.56 61.55 1754.94 60.07
  Q 1748.59 57.48 1742.55 53.89
  L 1756.97 56.01
  Z"
/>
<path d="
  M 351.41 55.54
  Q 357.46 56.23 363.50 55.91
  C 368.23 55.67 374.14 55.46 379.44 56.65
  C 387.77 58.51 407.37 63.90 406.66 74.93
  Q 406.48 77.68 402.54 82.82
  Q 401.42 84.30 396.48 92.07
  Q 393.28 97.10 389.73 100.24
  C 377.53 111.04 365.35 116.76 349.26 117.50
  Q 337.17 118.05 332.86 117.70
  A 4.09 3.98 59.3 0 1 331.48 117.33
  C 324.68 114.11 318.71 112.52 310.65 113.52
  Q 307.71 113.88 304.76 114.41
  Q 310.26 110.72 312.92 109.87
  Q 314.87 109.24 320.51 109.16
  Q 324.72 109.09 340.31 108.39
  Q 344.12 108.22 349.31 108.22
  C 362.24 108.23 371.48 101.62 380.92 92.47
  Q 388.42 85.20 395.14 79.52
  A 2.39 2.33 80.1 0 0 395.81 78.54
  Q 396.62 76.22 395.92 73.61
  A 1.64 1.60 10.7 0 0 395.29 72.71
  Q 395.00 72.51 389.77 69.85
  Q 387.30 68.60 383.93 67.80
  Q 379.80 66.84 370.66 64.42
  Q 367.66 63.63 359.78 62.66
  Q 350.46 61.51 341.37 60.69
  A 0.39 0.39 0.0 0 1 341.25 59.95
  L 351.41 55.54
  Z"
/>
<path d="
  M 1890.95 78.20
  L 1884.12 73.69
  A 0.14 0.14 0.0 0 1 1884.18 73.44
  L 1892.68 72.50
  A 0.49 0.49 0.0 0 0 1892.97 72.36
  L 1893.56 71.77
  A 0.90 0.90 0.0 0 0 1893.11 70.25
  L 1878.36 67.19
  Q 1885.57 66.24 1892.52 66.80
  A 5.65 5.62 57.0 0 1 1893.96 67.11
  Q 1903.48 70.56 1913.77 71.75
  A 0.95 0.94 30.0 0 1 1914.23 73.45
  C 1912.14 74.99 1910.71 75.32 1907.80 75.36
  Q 1898.93 75.48 1890.95 78.20
  Z"
/>
<path d="
  M 1889.90 78.22
  Q 1888.96 78.76 1887.94 78.92
  Q 1877.99 80.40 1874.18 81.15
  Q 1872.61 81.46 1869.09 82.76
  Q 1864.82 82.75 1860.25 82.68
  Q 1850.77 82.53 1841.35 84.03
  A 0.23 0.23 0.0 0 1 1841.09 83.79
  L 1841.10 83.50
  A 0.06 0.06 0.0 0 1 1841.15 83.44
  Q 1844.28 82.66 1845.81 80.74
  A 1.74 1.73 -80.0 0 1 1846.55 80.22
  C 1853.84 77.62 1859.98 76.74 1867.94 75.54
  C 1875.98 74.32 1882.61 75.26 1889.90 78.22
  Z"
/>
<path d="
  M 1841.38 81.71
  A 0.13 0.13 0.0 0 1 1841.55 81.79
  L 1841.57 81.83
  A 3.57 1.38 -21.3 0 1 1838.74 84.41
  L 1838.42 84.54
  A 3.57 1.38 -21.3 0 1 1834.60 84.55
  L 1834.58 84.50
  A 0.13 0.13 0.0 0 1 1834.65 84.33
  L 1841.38 81.71
  Z"
/>
<path d="
  M 1829.84 86.36
  Q 1831.31 85.68 1832.73 85.14
  Q 1833.33 84.92 1833.84 85.23
  A 0.26 0.26 0.0 0 1 1833.75 85.70
  L 1829.85 86.40
  A 0.02 0.02 0.0 0 1 1829.84 86.36
  Z"
/>
<path d="
  M 1818.14 113.23
  L 1816.61 115.68
  L 1810.99 122.60
  A 0.24 0.23 70.6 0 1 1810.58 122.40
  Q 1811.59 117.24 1814.14 112.12
  A 0.88 0.87 -71.9 0 1 1815.07 111.64
  Q 1816.62 111.89 1818.05 111.44
  A 0.37 0.37 0.0 0 1 1818.52 111.89
  L 1818.14 113.23
  Z"
/>
<path d="
  M 1855.92 117.62
  L 1870.23 121.89
  Q 1860.69 119.80 1851.20 117.76
  Q 1850.94 117.70 1850.82 117.49
  A 0.36 0.36 0.0 0 1 1851.10 116.96
  Q 1854.11 116.70 1855.92 117.62
  Z"
/>
<path d="
  M 1782.36 131.08
  Q 1780.78 129.72 1780.38 126.67
  A 0.42 0.42 0.0 0 1 1781.03 126.27
  C 1782.52 127.32 1784.68 128.55 1783.24 130.94
  A 0.59 0.58 -53.9 0 1 1782.36 131.08
  Z"
/>
<path d="
  M 311.53 146.45
  Q 303.46 142.88 295.44 139.58
  C 291.31 137.88 293.21 132.91 295.04 129.54
  L 300.39 130.30
  A 0.36 0.35 -63.6 0 1 300.59 130.90
  L 298.62 132.87
  A 2.44 2.43 37.8 0 0 299.11 136.69
  Q 301.44 138.06 306.02 140.46
  Q 310.11 142.60 311.53 146.45
  Z"
/>
<path d="
  M 302.73 175.65
  Q 294.84 182.12 286.87 187.90
  Q 285.36 189.00 285.09 188.28
  Q 292.32 179.71 302.73 175.65
  Z"
/>
<path d="
  M 283.36 189.01
  Q 276.08 195.46 265.16 200.89
  C 252.21 207.33 239.83 211.33 226.97 211.20
  Q 217.21 211.09 214.75 201.12
  Q 214.07 198.35 211.34 199.32
  Q 210.34 199.68 206.46 200.68
  A 0.61 0.60 75.6 0 1 205.73 200.24
  L 204.89 196.80
  A 0.58 0.58 0.0 0 1 205.27 196.12
  L 208.70 194.98
  Q 212.84 194.15 216.19 194.84
  Q 219.31 195.48 220.49 195.58
  L 220.81 195.97
  C 220.03 200.57 222.13 207.76 228.37 205.48
  Q 232.74 206.98 237.39 207.01
  Q 241.08 207.04 246.35 205.35
  Q 265.36 199.25 283.36 189.01
  Z"
/>
<path d="
  M 213.19 317.56
  Q 206.99 311.37 201.30 308.19
  Q 187.88 300.69 172.47 296.79
  Q 168.75 295.85 164.00 295.87
  Q 153.18 295.91 88.31 295.88
  A 14.98 14.92 55.5 0 1 82.99 294.88
  Q 73.81 291.33 62.29 291.73
  A 1.38 1.08 -30.1 0 1 61.93 291.68
  L 50.70 288.16
  A 0.96 0.87 -33.8 0 0 50.43 288.12
  Q 38.33 287.87 34.73 286.95
  Q 29.19 285.55 24.71 285.01
  A 0.38 0.38 0.0 0 1 24.69 284.25
  L 39.47 281.59
  A 1.10 1.05 28.0 0 0 39.72 281.52
  Q 46.97 278.77 53.51 278.55
  A 10.37 10.14 34.1 0 0 56.48 278.01
  L 110.80 259.22
  A 2.16 1.98 -53.2 0 1 111.43 259.10
  Q 121.10 258.67 131.43 256.87
  C 138.63 255.62 145.46 253.71 152.52 250.53
  Q 161.61 246.42 170.03 241.54
  C 179.69 235.94 183.14 227.68 186.73 217.61
  Q 189.19 218.60 191.60 220.69
  A 1.72 1.71 29.9 0 1 192.10 222.51
  C 190.53 227.32 188.01 230.39 184.46 234.70
  Q 181.34 238.51 178.47 240.76
  C 164.93 251.42 149.09 258.09 132.18 260.19
  Q 110.43 262.89 103.26 264.33
  Q 101.31 264.72 100.99 264.77
  A 9.13 9.06 -62.5 0 0 98.76 265.48
  Q 75.82 276.22 51.84 281.36
  C 50.83 281.58 49.80 282.19 49.29 283.05
  A 0.53 0.52 -74.2 0 0 49.73 283.84
  Q 57.01 284.02 64.52 285.21
  Q 89.20 289.10 105.23 291.87
  Q 107.57 292.28 112.49 291.70
  Q 132.41 289.34 156.00 288.88
  C 162.07 288.76 168.60 288.64 174.71 290.48
  Q 194.07 296.34 209.48 309.27
  Q 213.53 312.66 213.19 317.56
  Z"
/>
<path d="
  M 213.04 332.97
  Q 214.98 336.37 209.65 338.33
  L 213.04 332.97
  Z"
/>
<path d="
  M 1016.02 348.18
  L 925.49 348.17
  L 900.78 348.18
  A 0.26 0.26 0.0 0 1 900.71 347.66
  Q 910.35 345.03 918.75 340.76
  A 7.55 7.52 31.4 0 1 922.17 339.94
  Q 958.23 339.95 1000.98 339.84
  C 1007.71 339.82 1014.50 343.23 1019.60 347.35
  A 0.44 0.44 0.0 0 1 1019.33 348.13
  L 1016.02 348.18
  Z"
/>
<path d="
  M 479.06 347.96
  Q 393.41 348.11 308.00 348.08
  C 303.29 348.08 298.63 348.34 294.13 349.59
  Q 289.99 350.73 284.84 351.94
  C 277.28 353.72 270.05 356.74 263.30 360.79
  Q 261.83 361.68 254.64 366.64
  Q 252.91 367.84 249.01 367.92
  Q 239.56 368.12 195.01 367.91
  C 187.73 367.88 182.68 368.89 176.40 371.40
  A 5.34 5.32 33.4 0 1 174.53 371.78
  Q 167.50 371.86 164.38 372.16
  Q 159.18 372.67 152.66 375.98
  A 0.54 0.54 0.0 0 1 151.95 375.77
  L 151.94 375.75
  A 0.50 0.49 -33.5 0 1 152.08 375.09
  Q 163.84 366.85 175.60 357.09
  Q 177.11 355.84 181.37 353.10
  Q 188.11 348.75 207.07 340.72
  Q 204.96 343.81 201.39 345.90
  Q 188.40 353.49 169.55 364.37
  Q 168.19 365.15 167.36 366.10
  A 0.40 0.40 0.0 0 0 167.69 366.76
  C 175.73 366.12 183.09 365.34 190.17 363.79
  C 196.90 362.32 202.05 361.15 207.76 360.51
  Q 221.12 359.01 239.00 359.81
  C 245.27 360.10 248.58 357.35 253.20 353.97
  Q 261.88 347.62 272.44 345.22
  Q 284.99 342.36 299.72 340.78
  Q 307.73 339.92 327.32 339.93
  Q 435.87 339.98 531.43 339.90
  A 0.13 0.12 -2.4 0 1 531.56 340.01
  L 531.56 340.03
  A 0.29 0.29 0.0 0 1 531.30 340.34
  Q 505.08 343.37 479.06 347.96
  Z"
/>
<path d="
  M 819.24 348.10
  L 817.77 348.29
  L 810.29 348.52
  L 694.07 348.12
  L 681.35 348.13
  A 0.28 0.28 0.0 0 1 681.18 347.62
  Q 687.61 342.87 694.56 340.40
  A 8.51 8.37 34.8 0 1 697.37 339.92
  Q 740.17 339.98 749.13 339.92
  C 768.97 339.78 785.97 341.49 804.29 345.26
  Q 806.25 345.67 807.65 344.84
  A 0.73 0.72 47.6 0 0 807.70 343.63
  Q 804.75 341.51 800.51 340.41
  A 0.34 0.34 0.0 0 1 800.61 339.75
  L 810.43 340.18
  A 0.82 0.81 -22.6 0 1 810.95 340.39
  Q 813.80 343.08 812.62 346.18
  A 0.51 0.50 16.3 0 0 813.00 346.86
  L 819.24 348.10
  Z"
/>
<path d="
  M 1025.61 340.62
  L 1025.62 340.43
  A 4.44 0.79 4.1 0 1 1030.11 339.96
  L 1030.32 339.98
  A 4.44 0.79 4.1 0 1 1034.70 341.08
  L 1034.68 341.27
  L 1025.61 340.62
  Z"
/>
<path d="
  M 663.87 347.75
  L 638.07 348.17
  L 623.84 348.05
  A 0.26 0.25 -52.1 0 1 623.78 347.55
  Q 644.46 342.07 663.87 347.75
  Z"
/>
</g>
<g fill="#8c47c3">
<path d="
  M 589.99 31.02
  Q 577.27 32.70 570.50 31.52
  Q 567.28 30.97 565.00 30.84
  Q 560.34 30.59 559.50 30.45
  Q 541.95 27.57 525.33 20.65
  Q 524.86 20.45 524.55 19.96
  L 524.80 19.66
  A 1.37 1.35 -23.8 0 0 525.13 18.83
  Q 525.19 17.28 525.79 16.13
  A 0.92 0.91 -63.6 0 1 526.99 15.72
  C 539.08 21.40 552.09 26.73 565.09 29.91
  Q 568.77 30.82 575.49 30.85
  Q 582.58 30.88 589.99 31.02
  Z"
/>
<path d="
  M 963.48 17.92
  C 965.34 19.73 967.71 20.52 968.99 22.96
  Q 966.30 21.71 963.55 21.50
  A 0.04 0.04 0.0 0 1 963.52 21.44
  Q 963.58 21.34 963.62 21.24
  A 0.08 0.07 9.8 0 0 963.55 21.15
  L 955.75 20.13
  A 0.47 0.46 43.8 0 1 955.73 19.21
  L 963.48 17.92
  Z"
/>
<path d="
  M 784.23 19.36
  L 787.04 20.59
  A 0.22 0.22 0.0 0 1 787.00 21.01
  L 761.29 26.76
  Q 773.36 24.32 784.23 19.36
  Z"
/>
<path d="
  M 743.01 24.87
  Q 737.52 24.30 732.43 22.14
  Q 738.04 22.55 743.01 24.87
  Z"
/>
<path d="
  M 268.25 56.95
  L 248.99 49.24
  A 0.17 0.17 0.0 0 0 248.80 49.52
  C 252.14 53.18 255.74 58.55 260.30 60.48
  Q 265.96 62.87 276.45 66.12
  L 283.28 71.92
  Q 267.90 68.49 257.01 63.53
  C 254.27 62.28 251.90 59.72 249.55 56.89
  Q 245.81 52.38 241.06 48.50
  Q 231.40 41.43 218.37 38.83
  A 0.56 0.56 0.0 0 1 218.21 37.79
  Q 219.03 37.32 220.52 37.39
  Q 235.81 38.04 247.48 41.31
  C 254.26 43.20 260.33 46.49 264.63 52.08
  Q 266.42 54.41 268.25 56.95
  Z"
/>
<path d="
  M 177.29 73.93
  C 163.46 80.41 145.30 81.23 133.08 71.21
  C 129.78 68.51 126.40 63.46 123.93 60.34
  Q 121.45 57.22 117.64 56.44
  Q 118.57 54.99 116.64 51.31
  A 0.38 0.37 -12.7 0 1 116.99 50.76
  L 135.92 51.58
  A 4.17 4.14 68.4 0 1 138.65 52.77
  Q 141.77 55.85 146.21 62.02
  C 153.09 71.56 165.99 74.96 177.29 73.93
  Z"
/>
<path d="
  M 210.21 54.89
  L 213.94 55.10
  L 224.23 55.66
  Q 216.77 60.75 205.49 58.62
  Q 204.99 57.68 204.99 57.05
  Q 205.00 56.36 206.07 56.04
  Q 208.12 55.42 210.21 54.89
  Z"
/>
<path d="
  M 100.32 61.23
  Q 100.43 62.32 99.01 63.29
  Q 96.33 65.11 93.09 65.69
  Q 86.34 66.90 79.41 66.95
  L 69.41 63.84
  A 0.35 0.35 0.0 0 1 69.49 63.15
  L 100.32 61.23
  Z"
/>
<path d="
  M 274.07 91.62
  Q 264.81 95.56 260.11 103.88
  A 0.55 0.54 25.2 0 1 259.43 104.12
  L 249.72 100.30
  Q 259.71 90.89 274.07 91.62
  Z"
/>
<path d="
  M 1895.06 96.54
  L 1898.56 98.90
  A 0.35 0.35 0.0 0 1 1898.26 99.53
  Q 1893.43 98.04 1888.29 96.82
  Q 1870.18 92.51 1851.90 97.71
  L 1846.79 96.74
  A 0.22 0.21 -46.6 0 1 1846.78 96.32
  Q 1854.95 94.22 1863.24 93.33
  Q 1879.58 91.56 1895.06 96.54
  Z"
/>
<path d="
  M 214.85 99.90
  Q 214.01 103.10 215.81 105.21
  C 219.55 109.62 228.04 113.45 233.19 115.05
  Q 240.32 117.25 242.92 118.12
  A 1.22 1.22 0.0 0 1 243.71 119.61
  C 242.00 125.59 244.27 129.96 248.86 135.60
  A 0.17 0.17 0.0 0 1 248.68 135.87
  Q 238.70 132.51 227.96 130.46
  Q 226.57 126.68 227.90 123.62
  A 1.37 1.37 0.0 0 0 227.02 121.76
  Q 222.73 120.53 218.05 119.22
  Q 213.99 118.09 206.60 114.43
  C 203.24 112.77 199.03 110.15 198.38 106.07
  A 2.15 2.15 0.0 0 1 198.46 105.07
  Q 199.85 100.67 204.88 99.91
  Q 210.01 99.12 214.85 99.90
  Z"
/>
<path d="
  M 121.25 105.44
  Q 122.21 110.24 119.28 112.30
  C 116.66 114.15 109.61 112.33 106.63 111.57
  C 107.17 108.43 105.52 108.05 103.03 107.47
  Q 97.09 106.11 95.58 105.84
  A 0.35 0.35 0.0 0 1 95.62 105.15
  Q 98.40 105.01 106.91 105.21
  Q 108.76 105.25 111.35 104.72
  C 115.70 103.82 117.43 105.36 121.25 105.44
  Z"
/>
<path d="
  M 90.17 115.93
  Q 90.72 116.94 90.06 117.78
  Q 87.78 118.32 86.25 117.50
  A 0.30 0.30 0.0 0 1 86.24 116.98
  Q 88.17 115.83 90.17 115.93
  Z"
/>
<path d="
  M 1913.82 122.23
  L 1904.14 118.40
  Q 1912.32 118.43 1913.82 122.23
  Z"
/>
<path d="
  M 1843.97 126.62
  L 1836.98 128.35
  Q 1829.56 127.79 1823.07 131.35
  A 0.29 0.29 0.0 0 1 1822.72 130.89
  L 1825.42 128.19
  A 2.46 2.43 20.7 0 1 1827.02 127.48
  L 1843.97 126.62
  Z"
/>
<path d="
  M 179.81 135.05
  Q 175.37 137.05 174.10 138.59
  C 167.82 146.25 172.63 153.16 179.48 157.52
  A 0.89 0.89 0.0 0 1 179.60 158.93
  Q 176.99 161.27 173.69 162.43
  Q 171.35 163.26 166.75 164.86
  A 0.96 0.96 0.0 0 0 166.70 166.66
  L 181.57 172.66
  A 5.05 4.97 -33.5 0 0 183.36 173.01
  Q 187.38 173.04 193.86 173.68
  C 206.27 174.92 217.29 183.18 220.49 195.58
  Q 219.31 195.48 216.19 194.84
  Q 212.84 194.15 208.70 194.98
  Q 206.60 194.65 204.48 195.16
  A 0.60 0.60 0.0 0 1 203.80 194.82
  Q 202.75 192.43 201.55 190.92
  C 192.90 180.05 182.47 177.96 169.03 178.06
  A 7.73 7.72 -34.6 0 1 166.19 177.54
  L 151.45 171.90
  A 1.02 1.02 0.0 0 1 151.42 170.01
  C 154.75 168.62 160.62 167.44 164.05 163.84
  A 0.95 0.95 0.0 0 0 163.84 162.36
  Q 160.33 160.35 158.09 157.52
  C 154.51 152.96 154.86 146.24 159.48 142.72
  Q 167.79 136.41 179.81 135.05
  Z"
/>
<path d="
  M 1821.14 137.21
  L 1819.65 142.45
  A 1.76 1.74 35.0 0 0 1819.93 143.98
  L 1822.15 146.95
  A 3.07 3.06 -66.9 0 1 1822.72 148.38
  Q 1823.21 152.44 1821.02 156.12
  A 2.92 2.91 6.9 0 1 1819.40 157.39
  L 1808.02 160.91
  Q 1808.66 158.93 1810.03 157.32
  A 2.02 2.01 11.9 0 1 1811.00 156.69
  C 1812.47 156.25 1814.49 155.94 1815.81 155.12
  C 1822.67 150.82 1819.13 143.98 1815.11 139.10
  A 0.59 0.58 72.2 0 1 1815.60 138.14
  Q 1818.24 138.34 1821.14 137.21
  Z"
/>
<path d="
  M 262.45 168.33
  C 261.50 165.81 257.96 162.93 256.46 161.50
  C 252.11 157.37 247.83 157.07 242.18 156.09
  L 243.74 153.65
  A 1.65 1.63 12.4 0 1 244.91 152.91
  C 252.59 151.99 264.94 151.71 270.54 157.08
  Q 274.43 160.80 277.02 163.74
  A 0.45 0.44 -28.3 0 1 276.80 164.46
  L 262.45 168.33
  Z"
/>
<path d="
  M 261.80 168.50
  C 254.97 171.23 250.29 173.48 245.90 178.58
  A 0.89 0.88 -41.7 0 1 244.49 178.50
  L 241.98 174.80
  Q 242.36 174.32 243.35 173.85
  Q 252.34 169.57 261.80 168.50
  Z"
/>
<path d="
  M 1882.49 171.41
  L 1882.25 172.17
  C 1879.55 173.73 1876.64 176.09 1873.48 176.29
  A 0.38 0.38 0.0 0 1 1873.12 175.73
  C 1874.04 174.01 1874.52 172.91 1876.78 172.36
  Q 1879.57 171.68 1882.49 171.41
  Z"
/>
<path d="
  M 1671.60 181.17
  Q 1667.45 181.19 1663.33 180.65
  Q 1657.07 179.84 1655.12 179.79
  Q 1647.59 179.59 1640.40 181.00
  A 1.56 1.56 0.0 0 0 1639.14 182.53
  Q 1639.15 186.69 1635.79 189.60
  Q 1630.74 190.38 1625.35 189.75
  A 0.24 0.24 0.0 0 1 1625.26 189.30
  C 1630.80 186.34 1633.30 183.02 1637.31 177.84
  A 1.98 1.98 0.0 0 1 1638.53 177.11
  Q 1640.64 176.76 1643.19 177.13
  Q 1657.33 179.13 1671.60 181.17
  Z"
/>
<path d="
  M 1915.47 178.20
  L 1920.19 178.84
  A 0.78 0.77 5.3 0 1 1920.86 179.64
  L 1920.63 184.75
  A 0.74 0.73 -11.5 0 1 1920.21 185.38
  L 1910.80 189.61
  A 1.88 1.87 47.8 0 1 1909.08 189.52
  L 1906.27 187.90
  A 1.20 1.18 51.3 0 0 1905.35 187.79
  L 1885.64 193.53
  Q 1885.34 191.29 1886.66 190.41
  Q 1899.15 182.08 1915.47 178.20
  Z"
/>
<path d="
  M 80.12 180.90
  L 71.27 180.87
  Q 73.05 178.18 75.93 179.23
  Q 77.94 179.97 80.12 180.90
  Z"
/>
<path d="
  M 1732.86 231.46
  Q 1728.79 229.31 1726.16 227.09
  Q 1721.63 223.25 1716.32 217.26
  L 1728.54 219.11
  A 0.81 0.81 0.0 0 1 1729.22 219.76
  C 1730.49 225.95 1739.29 231.26 1744.42 233.75
  A 0.16 0.16 0.0 0 1 1744.31 234.05
  L 1732.86 231.46
  Z"
/>
<path d="
  M 1877.17 243.55
  L 1879.73 246.62
  A 0.46 0.45 53.1 0 1 1879.64 247.29
  Q 1874.01 251.18 1866.58 253.39
  Q 1872.69 249.66 1877.17 243.55
  Z"
/>
<path d="
  M 1595.65 264.38
  L 1599.10 265.62
  Q 1589.40 269.55 1580.08 273.14
  Q 1572.17 276.18 1566.29 281.12
  A 0.35 0.34 75.4 0 1 1565.73 280.79
  Q 1567.01 274.00 1570.42 267.26
  A 1.08 1.07 9.0 0 1 1571.23 266.68
  C 1581.97 265.04 1587.20 263.99 1595.65 264.38
  Z"
/>
<path d="
  M 1603.13 281.45
  L 1603.14 281.16
  A 0.16 0.15 87.8 0 1 1603.26 281.02
  Q 1612.29 278.94 1620.37 273.66
  A 7.15 7.09 31.2 0 1 1625.00 272.54
  Q 1631.26 273.19 1634.01 273.31
  Q 1645.78 273.79 1658.26 269.01
  Q 1658.97 268.74 1660.79 268.64
  A 1.03 1.03 0.0 0 1 1661.80 270.07
  Q 1657.67 279.82 1648.10 286.78
  A 0.78 0.78 0.0 0 1 1647.17 286.77
  L 1645.60 285.59
  A 3.55 3.52 -24.0 0 0 1643.83 284.92
  C 1636.81 284.32 1628.39 287.38 1621.76 289.86
  A 0.39 0.39 0.0 0 1 1621.24 289.41
  Q 1622.56 283.02 1616.03 281.70
  Q 1610.21 280.53 1603.49 281.76
  A 0.30 0.30 0.0 0 1 1603.13 281.45
  Z"
/>
<path d="
  M 1825.45 281.52
  L 1829.08 283.98
  A 0.36 0.36 0.0 0 1 1829.08 284.58
  Q 1826.13 286.52 1822.95 285.75
  Q 1813.79 283.52 1805.89 286.01
  A 1.64 1.63 6.2 0 0 1804.95 286.76
  L 1801.12 293.39
  A 1.83 1.77 63.7 0 0 1800.90 294.08
  L 1800.35 298.97
  A 0.83 0.82 -89.6 0 1 1799.62 299.69
  L 1787.37 301.04
  A 0.94 0.90 -27.9 0 1 1786.70 300.85
  L 1783.97 298.67
  Q 1784.20 298.23 1785.23 298.24
  C 1791.68 298.28 1799.96 295.47 1803.03 289.09
  Q 1805.25 284.49 1801.38 280.75
  A 0.38 0.38 0.0 0 1 1801.66 280.09
  L 1825.45 281.52
  Z"
/>
<path d="
  M 1781.97 298.65
  C 1779.52 299.06 1778.69 300.85 1777.06 301.95
  L 1776.51 299.19
  A 0.42 0.41 84.7 0 1 1776.91 298.70
  L 1781.97 298.65
  Z"
/>
<path d="
  M 1794.01 305.44
  Q 1793.35 305.73 1792.62 305.58
  A 0.22 0.22 0.0 0 1 1792.56 305.17
  Q 1792.95 304.97 1793.90 304.97
  A 0.25 0.24 32.2 0 1 1794.01 305.44
  Z"
/>
<path d="
  M 1775.13 306.14
  Q 1776.71 307.54 1776.09 311.46
  Q 1769.65 312.08 1766.39 311.35
  Q 1761.53 310.27 1758.38 306.73
  A 0.56 0.56 0.0 0 1 1758.86 305.80
  C 1764.05 306.35 1769.38 308.82 1775.13 306.14
  Z"
/>
<path d="
  M 1729.55 329.01
  L 1724.44 327.02
  A 1.28 1.21 82.2 0 1 1723.83 326.53
  L 1722.59 324.61
  A 0.86 0.75 87.5 0 0 1722.37 324.38
  Q 1719.31 322.45 1711.28 319.48
  Q 1709.28 318.73 1708.10 318.66
  A 1.88 1.83 31.7 0 0 1707.11 318.88
  Q 1697.55 324.04 1683.56 332.81
  Q 1678.95 335.70 1671.76 339.11
  Q 1669.48 338.14 1667.75 336.49
  A 0.39 0.38 -33.6 0 1 1667.88 335.86
  Q 1688.39 328.00 1705.45 314.23
  Q 1708.06 312.13 1709.83 311.86
  Q 1712.59 311.44 1714.50 313.15
  Q 1722.82 320.59 1732.14 326.22
  A 0.53 0.52 34.0 0 1 1732.29 326.98
  Q 1731.27 328.39 1729.55 329.01
  Z"
/>
<path d="
  M 1858.13 335.28
  L 1866.74 345.83
  A 0.22 0.22 0.0 0 1 1866.46 346.16
  Q 1858.71 341.89 1850.48 340.22
  Q 1842.05 338.51 1833.51 340.10
  Q 1823.07 342.05 1813.80 348.56
  Q 1817.03 344.93 1820.52 342.27
  C 1822.86 340.49 1825.22 339.19 1828.20 338.46
  Q 1842.74 334.90 1858.13 335.28
  Z"
/>
<path d="
  M 1665.88 341.64
  L 1660.87 343.55
  A 0.48 0.47 51.2 0 0 1660.78 344.39
  Q 1663.81 346.37 1666.53 348.99
  A 15.18 14.73 -6.1 0 0 1668.93 350.87
  Q 1676.05 355.34 1678.16 356.85
  Q 1688.52 364.28 1696.96 374.74
  A 0.06 0.06 0.0 0 1 1696.87 374.83
  Q 1688.57 368.91 1680.06 363.46
  C 1675.10 360.28 1670.07 357.85 1664.81 356.69
  Q 1663.40 356.38 1659.82 355.94
  A 3.01 3.00 68.7 0 1 1658.23 355.24
  C 1651.78 349.75 1644.31 347.01 1636.29 349.46
  A 5.70 5.63 36.6 0 1 1634.59 349.70
  C 1628.62 349.66 1622.61 350.49 1617.36 352.99
  Q 1614.76 354.23 1613.12 354.99
  A 4.73 4.67 -58.9 0 1 1611.51 355.40
  Q 1597.71 356.36 1589.18 358.67
  Q 1581.86 360.64 1569.20 364.16
  C 1561.00 366.45 1553.51 369.72 1545.78 373.15
  Q 1549.22 367.19 1554.90 363.93
  C 1561.57 360.10 1569.18 356.11 1576.85 353.14
  Q 1578.51 352.49 1582.34 351.82
  Q 1605.12 347.79 1628.40 340.70
  A 3.90 3.82 -50.1 0 1 1629.80 340.56
  C 1631.73 340.72 1633.44 341.39 1635.47 340.97
  C 1638.97 340.26 1641.95 341.73 1645.48 341.35
  Q 1649.95 340.87 1657.55 339.65
  A 5.86 5.86 0.0 0 1 1661.21 340.25
  Q 1662.73 341.06 1665.88 341.64
  Z"
/>
<path d="
  M 1848.00 344.64
  A 0.12 0.11 -40.5 0 1 1847.98 344.85
  L 1847.52 345.01
  A 0.14 0.13 81.7 0 1 1847.34 344.87
  Q 1847.39 344.32 1848.00 344.64
  Z"
/>
<ellipse cx="0.00" cy="0.00" transform="translate(884.68,347.92) rotate(-0.4)" rx="3.50" ry="0.27"/>
<path d="
  M 916.99 351.13
  L 906.82 354.04
  A 3.47 3.46 42.1 0 1 905.22 354.12
  C 884.39 350.31 861.36 357.09 844.58 369.83
  A 4.15 4.05 23.1 0 1 842.47 370.65
  Q 834.35 371.45 826.47 370.35
  Q 808.55 367.84 784.28 362.20
  Q 779.95 361.19 777.43 359.56
  Q 798.40 363.81 819.29 366.26
  Q 826.00 367.05 831.62 366.41
  C 833.36 366.22 834.67 365.96 836.20 364.71
  Q 843.61 358.61 855.01 354.01
  C 859.72 352.12 863.00 350.95 868.15 350.85
  Q 880.96 350.60 908.95 350.12
  A 7.28 7.01 -37.0 0 1 910.83 350.35
  Q 913.81 351.14 916.99 351.13
  Z"
/>
<path d="
  M 689.87 350.79
  L 685.45 354.69
  A 0.75 0.74 38.6 0 1 684.60 354.78
  L 677.60 350.97
  L 689.87 350.79
  Z"
/>
<path d="
  M 627.55 350.99
  Q 621.28 352.99 616.17 356.05
  A 2.94 2.91 -57.1 0 1 614.34 356.45
  L 605.99 355.51
  Q 610.36 351.64 614.62 351.13
  Q 619.70 350.53 627.55 350.99
  Z"
/>
<path d="
  M 1811.54 350.73
  Q 1808.70 355.25 1806.05 359.65
  Q 1805.51 360.55 1803.90 359.32
  L 1811.54 350.73
  Z"
/>
<path d="
  M 1517.00 382.85
  Q 1491.14 365.77 1460.84 359.47
  Q 1457.77 358.83 1446.80 357.33
  Q 1441.07 356.55 1432.77 355.18
  Q 1430.14 354.75 1419.85 353.82
  Q 1419.06 352.99 1418.92 352.30
  A 0.51 0.51 0.0 0 1 1419.43 351.69
  C 1420.62 351.73 1422.08 351.92 1423.51 351.63
  Q 1426.76 350.97 1428.62 351.17
  Q 1455.00 354.01 1474.27 359.76
  Q 1495.70 366.16 1510.21 371.53
  C 1514.22 373.01 1516.16 379.11 1517.00 382.85
  Z"
/>
<path d="
  M 1186.78 354.53
  Q 1185.65 354.49 1184.58 354.64
  Q 1162.14 357.84 1141.87 367.61
  Q 1140.57 368.24 1138.77 368.51
  A 1.81 1.77 -37.4 0 1 1137.79 368.39
  Q 1117.72 359.77 1095.16 357.68
  C 1089.77 357.18 1079.23 356.01 1072.59 356.43
  Q 1059.37 357.25 1046.65 361.93
  A 1.81 1.71 -56.0 0 1 1046.20 362.03
  L 1030.52 363.44
  A 0.40 0.39 -80.2 0 1 1030.13 362.88
  Q 1031.83 359.13 1028.90 355.73
  Q 1029.02 355.48 1029.26 355.32
  Q 1029.52 355.13 1029.78 355.13
  Q 1036.84 355.09 1042.94 352.60
  A 8.14 8.03 34.8 0 1 1046.36 352.01
  L 1068.13 352.96
  A 1.53 1.48 -46.0 0 0 1068.43 352.95
  Q 1074.04 352.27 1077.25 352.32
  Q 1094.17 352.59 1105.75 352.71
  C 1107.68 352.73 1110.34 353.00 1112.46 353.55
  Q 1121.62 355.90 1128.91 359.16
  A 4.17 4.16 -45.4 0 0 1132.36 359.13
  C 1140.49 355.34 1145.37 352.29 1152.36 352.31
  Q 1154.29 352.32 1176.75 352.17
  Q 1179.74 352.15 1186.52 353.74
  A 0.43 0.42 3.9 0 1 1186.85 354.11
  Q 1186.87 354.32 1186.78 354.53
  Z
  M 1117.84 361.15
  L 1122.73 362.51
  A 0.06 0.06 0.0 0 0 1122.81 362.47
  L 1122.86 362.29
  A 1.33 0.81 15.6 0 0 1121.80 361.15
  L 1119.35 360.47
  A 1.33 0.81 15.6 0 0 1117.85 360.89
  L 1117.80 361.07
  A 0.06 0.06 0.0 0 0 1117.84 361.15
  Z"
/>
<path d="
  M 1015.49 356.96
  Q 1015.63 357.11 1015.93 357.21
  A 2.25 0.51 29.2 0 1 1017.15 358.56
  A 2.25 0.50 29.2 0 1 1013.30 356.46
  A 2.25 0.50 29.4 0 1 1015.49 356.96
  Z"
/>
<ellipse cx="0.00" cy="0.00" transform="translate(1128.48,370.06) rotate(-162.1)" rx="2.48" ry="0.54"/>
</g>
</svg>
